<svg width="10.000000" height="10.000000" viewBox="0 0 10 10" fill="none" xmlns="http://www.w3.org/2000/svg" xmlns:xlink="http://www.w3.org/1999/xlink">
	<desc>
			Created with Pixso.
	</desc>
	<defs/>
	<path id="Icon color" d="M0.27 0C0.12 0 0 0.12 0 0.27L0 6.11C0 6.72 0.49 7.22 1.11 7.22L8.15 7.22L6.23 9.13C6.18 9.18 6.15 9.25 6.15 9.33C6.15 9.4 6.18 9.47 6.23 9.52L6.62 9.91C6.67 9.97 6.75 10 6.82 10C6.89 10 6.97 9.97 7.02 9.91L9.87 7.06C9.95 6.98 10 6.88 10 6.77L10 6.56C9.99 6.45 9.95 6.34 9.87 6.26L7.02 3.41C6.97 3.36 6.89 3.33 6.82 3.33C6.75 3.33 6.67 3.36 6.62 3.41L6.23 3.81C6.18 3.86 6.15 3.93 6.15 4C6.15 4.07 6.18 4.14 6.23 4.2L8.15 6.11L1.11 6.11L1.11 0.27C1.11 0.12 0.98 0 0.83 0L0.27 0Z" fill="#4295E4" fill-opacity="1.000000" fill-rule="nonzero"/>
	<path id="Icon color" d="M0 0.27L0 6.11C0 6.72 0.49 7.22 1.11 7.22L8.15 7.22L6.23 9.13C6.18 9.18 6.15 9.25 6.15 9.33C6.15 9.4 6.18 9.47 6.23 9.52L6.62 9.91C6.67 9.97 6.75 10 6.82 10C6.89 10 6.97 9.97 7.02 9.91L9.87 7.06C9.95 6.98 10 6.88 10 6.77L10 6.56C9.99 6.45 9.95 6.34 9.87 6.26L7.02 3.41C6.97 3.36 6.89 3.33 6.82 3.33C6.75 3.33 6.67 3.36 6.62 3.41L6.23 3.81C6.18 3.86 6.15 3.93 6.15 4C6.15 4.07 6.18 4.14 6.23 4.2L8.15 6.11L1.11 6.11L1.11 0.27C1.11 0.12 0.98 0 0.83 0L0.27 0C0.12 0 0 0.12 0 0.27Z" stroke="#C4CDD5" stroke-opacity="1.000000" stroke-width="0.000000"/>
</svg>
