<svg width="22.796875" height="21.185547" viewBox="0 0 22.7969 21.1855" fill="none" xmlns="http://www.w3.org/2000/svg" xmlns:xlink="http://www.w3.org/1999/xlink">
	<desc>
			Created with Pixso.
	</desc>
	<defs/>
	<path id="Vector" d="M20.34 8.76C20.28 8.65 20.17 8.59 20.05 8.59L2.74 8.59C2.62 8.59 2.51 8.65 2.45 8.76L0.29 12.88C0.2 13.04 0.26 13.24 0.42 13.33C0.47 13.35 0.52 13.36 0.58 13.36L2.41 13.36L2.41 20.6C2.41 20.78 2.56 20.93 2.74 20.93L20.05 20.93C20.23 20.93 20.37 20.78 20.37 20.6L20.37 13.36L22.21 13.36C22.39 13.36 22.54 13.22 22.54 13.04C22.54 12.98 22.53 12.93 22.5 12.88L20.34 8.76ZM2.94 9.24L10.85 9.24L9.03 12.71L1.12 12.71L2.94 9.24ZM3.07 13.36L9.23 13.36C9.35 13.36 9.46 13.3 9.52 13.19L11.07 10.25L11.07 20.28L3.07 20.28L3.07 13.36ZM19.72 20.27L11.72 20.27L11.72 10.24L13.27 13.19C13.33 13.3 13.44 13.37 13.56 13.36L19.72 13.36L19.72 20.27ZM13.76 12.71L11.94 9.24L19.85 9.24L21.67 12.71L13.76 12.71Z" fill="#4295E4" fill-opacity="1.000000" fill-rule="nonzero"/>
	<path id="Vector" d="M20.05 8.59L2.74 8.59C2.62 8.59 2.51 8.65 2.45 8.76L0.29 12.88C0.2 13.04 0.26 13.24 0.42 13.33C0.47 13.35 0.52 13.36 0.58 13.36L2.41 13.36L2.41 20.6C2.41 20.78 2.56 20.93 2.74 20.93L20.05 20.93C20.23 20.93 20.37 20.78 20.37 20.6L20.37 13.36L22.21 13.36C22.39 13.36 22.54 13.22 22.54 13.04C22.54 12.98 22.53 12.93 22.5 12.88L20.34 8.76C20.28 8.65 20.17 8.59 20.05 8.59ZM10.85 9.24L9.03 12.71L1.12 12.71L2.94 9.24L10.85 9.24ZM9.23 13.36C9.35 13.36 9.46 13.3 9.52 13.19L11.07 10.25L11.07 20.28L3.07 20.28L3.07 13.36L9.23 13.36ZM11.72 20.27L11.72 10.24L13.27 13.19C13.33 13.3 13.44 13.37 13.56 13.36L19.72 13.36L19.72 20.27L11.72 20.27ZM11.94 9.24L19.85 9.24L21.67 12.71L13.76 12.71L11.94 9.24Z" stroke="#4295E4" stroke-opacity="1.000000" stroke-width="0.500000"/>
	<path id="Vector" d="M11.39 7.56C13.41 7.56 15.05 5.92 15.05 3.9C15.05 1.88 13.41 0.25 11.39 0.25C9.37 0.25 7.73 1.88 7.73 3.9L7.73 3.9C7.74 5.92 9.37 7.56 11.39 7.56ZM11.39 0.9C13.05 0.9 14.39 2.25 14.39 3.9C14.39 5.56 13.05 6.91 11.39 6.91C9.73 6.91 8.39 5.56 8.39 3.9C8.39 2.25 9.73 0.9 11.39 0.9Z" fill="#4295E4" fill-opacity="1.000000" fill-rule="nonzero"/>
	<path id="Vector" d="M15.05 3.9C15.05 1.88 13.41 0.25 11.39 0.25C9.37 0.25 7.73 1.88 7.73 3.9L7.73 3.9C7.74 5.92 9.37 7.56 11.39 7.56C13.41 7.56 15.05 5.92 15.05 3.9ZM14.39 3.9C14.39 5.56 13.05 6.91 11.39 6.91C9.73 6.91 8.39 5.56 8.39 3.9C8.39 2.25 9.73 0.9 11.39 0.9C13.05 0.9 14.39 2.25 14.39 3.9Z" stroke="#4295E4" stroke-opacity="1.000000" stroke-width="0.500000"/>
	<path id="Vector" d="M11.73 4.82L10.25 4.82C10.07 4.82 9.92 4.96 9.92 5.15C9.92 5.33 10.07 5.47 10.25 5.47L11.73 5.47C12.47 5.46 13.07 4.85 13.06 4.1C13.05 3.37 12.46 2.78 11.73 2.77L11.04 2.77L11.27 2.54C11.4 2.41 11.41 2.21 11.28 2.08C11.15 1.95 10.94 1.94 10.82 2.07C10.81 2.07 10.81 2.07 10.81 2.08L10.02 2.86C9.89 2.99 9.89 3.2 10.02 3.33C10.02 3.33 10.02 3.33 10.02 3.33L10.81 4.11C10.93 4.24 11.14 4.24 11.27 4.11C11.4 3.99 11.4 3.78 11.27 3.65L11.04 3.42L11.73 3.42C12.11 3.43 12.42 3.75 12.41 4.13C12.41 4.51 12.1 4.81 11.73 4.82L11.73 4.82Z" fill="#4295E4" fill-opacity="1.000000" fill-rule="nonzero"/>
	<path id="Vector" d="M10.25 4.82C10.07 4.82 9.92 4.96 9.92 5.15C9.92 5.33 10.07 5.47 10.25 5.47L11.73 5.47C12.47 5.46 13.07 4.85 13.06 4.1C13.05 3.37 12.46 2.78 11.73 2.77L11.04 2.77L11.27 2.54C11.4 2.41 11.41 2.21 11.28 2.08C11.15 1.95 10.94 1.94 10.82 2.07C10.81 2.07 10.81 2.07 10.81 2.08L10.02 2.86C9.89 2.99 9.89 3.2 10.02 3.33C10.02 3.33 10.02 3.33 10.02 3.33L10.81 4.11C10.93 4.24 11.14 4.24 11.27 4.11C11.4 3.99 11.4 3.78 11.27 3.65L11.04 3.42L11.73 3.42C12.11 3.43 12.42 3.75 12.41 4.13C12.41 4.51 12.1 4.81 11.73 4.82L11.73 4.82L10.25 4.82Z" stroke="#4295E4" stroke-opacity="1.000000" stroke-width="0.500000"/>
</svg>
