<svg width="21.000000" height="21.000000" viewBox="0 0 21 21" fill="none" xmlns="http://www.w3.org/2000/svg" xmlns:xlink="http://www.w3.org/1999/xlink">
	<desc>
			Created with Pixso.
	</desc>
	<defs/>
	<path id="Vector" d="M0 18.76C0 19.99 1 21 2.23 21L18.76 21C20 21 21 19.99 21 18.76L21 2.23C21 1 20 0 18.76 0L2.23 0C1 0 0 1 0 2.23L0 18.76ZM18.76 19.5L2.23 19.5C1.82 19.5 1.5 19.17 1.5 18.76L1.5 17.61L8.22 12.23L14.5 17.81C14.81 18.08 15.28 18.05 15.55 17.74C15.83 17.43 15.8 16.96 15.49 16.68L13.78 15.16L15.67 13.74L19.5 17.56L19.5 18.76C19.5 19.17 19.17 19.5 18.76 19.5ZM2.23 1.5L18.76 1.5C19.17 1.5 19.5 1.82 19.5 2.23L19.5 15.43L16.28 12.21C16.01 11.95 15.59 11.92 15.3 12.15L12.63 14.14L8.74 10.68C8.47 10.44 8.06 10.43 7.78 10.66L1.5 15.68L1.5 2.23C1.5 1.82 1.82 1.5 2.23 1.5Z" fill="#4295E4" fill-opacity="1.000000" fill-rule="nonzero"/>
	<path id="Vector" d="M14.25 9C15.9 9 17.25 7.65 17.25 6C17.25 4.34 15.9 3 14.25 3C12.59 3 11.25 4.34 11.25 6C11.25 7.65 12.59 9 14.25 9ZM14.25 4.5C15.07 4.5 15.75 5.17 15.75 6C15.75 6.82 15.07 7.5 14.25 7.5C13.42 7.5 12.75 6.82 12.75 6C12.75 5.17 13.42 4.5 14.25 4.5Z" fill="#4295E4" fill-opacity="1.000000" fill-rule="nonzero"/>
</svg>
