<svg width="13.248047" height="12.240112" viewBox="0 0 13.248 12.2401" fill="none" xmlns="http://www.w3.org/2000/svg" xmlns:xlink="http://www.w3.org/1999/xlink">
	<desc>
			Created with Pixso.
	</desc>
	<defs/>
	<path id="Vector" d="M11.35 0L1.89 0C0.84 0 0 0.84 0 1.89L0 8.28C0 9.32 0.84 10.17 1.89 10.17L2.63 10.17L2.64 11.83C2.64 11.99 2.73 12.13 2.87 12.19C2.92 12.22 2.99 12.24 3.05 12.24C3.13 12.24 3.22 12.21 3.29 12.15L5.87 10.17L11.35 10.17C12.4 10.17 13.24 9.32 13.24 8.28L13.24 1.89C13.24 0.84 12.4 0 11.35 0ZM12.43 8.28C12.43 8.87 11.95 9.36 11.35 9.36L5.73 9.36C5.64 9.36 5.55 9.38 5.48 9.44L3.44 11.01L3.43 9.76C3.43 9.53 3.25 9.36 3.03 9.36L1.89 9.36C1.29 9.36 0.81 8.87 0.81 8.28L0.81 1.89C0.81 1.29 1.29 0.8 1.89 0.8L11.35 0.8C11.95 0.8 12.43 1.29 12.43 1.89L12.43 8.28L12.43 8.28Z" fill="#C4CDD5" fill-opacity="1.000000" fill-rule="nonzero"/>
</svg>
