<svg width="20.000000" height="20.000000" viewBox="0 0 20 20" fill="none" xmlns="http://www.w3.org/2000/svg" xmlns:xlink="http://www.w3.org/1999/xlink">
	<desc>
			Created with Pixso.
	</desc>
	<defs>
		<clipPath id="clip282_7004">
			<rect id="credit-card (1) 1" rx="-0.500000" width="19.000000" height="19.000000" transform="translate(0.500000 0.500000)" fill="white" fill-opacity="0"/>
		</clipPath>
	</defs>
	<rect id="credit-card (1) 1" rx="-0.500000" width="19.000000" height="19.000000" transform="translate(0.500000 0.500000)" fill="#FFFFFF" fill-opacity="0"/>
	<g clip-path="url(#clip282_7004)">
		<path id="Vector" d="M17.81 3.12L2.18 3.12C0.98 3.12 0 4.1 0 5.31L0 14.68C0 15.89 0.98 16.87 2.18 16.87L17.81 16.87C19.01 16.87 20 15.89 20 14.68L20 5.31C20 4.1 19.01 3.12 17.81 3.12ZM2.18 4.37L17.81 4.37C18.32 4.37 18.75 4.79 18.75 5.31L18.75 6.56L1.25 6.56L1.25 5.31C1.25 4.79 1.67 4.37 2.18 4.37ZM17.81 15.62L2.18 15.62C1.67 15.62 1.25 15.2 1.25 14.68L1.25 7.81L18.75 7.81L18.75 14.68C18.75 15.2 18.32 15.62 17.81 15.62Z" fill="#4295E4" fill-opacity="1.000000" fill-rule="nonzero"/>
		<path id="Vector" d="M4.37 13.75L3.75 13.75C3.4 13.75 3.12 13.47 3.12 13.12L3.12 12.5C3.12 12.15 3.4 11.87 3.75 11.87L4.37 11.87C4.71 11.87 5 12.15 5 12.5L5 13.12C5 13.47 4.71 13.75 4.37 13.75Z" fill="#4295E4" fill-opacity="1.000000" fill-rule="nonzero"/>
	</g>
</svg>
