<svg width="14.000000" height="14.000000" viewBox="0 0 14 14" fill="none" xmlns="http://www.w3.org/2000/svg" xmlns:xlink="http://www.w3.org/1999/xlink">
	<desc>
			Created with Pixso.
	</desc>
	<defs>
		<clipPath id="clip193_3704">
			<rect id="edit 1" rx="-0.500000" width="13.000000" height="13.000000" transform="translate(0.500000 0.500000)" fill="white" fill-opacity="0"/>
		</clipPath>
	</defs>
	<rect id="edit 1" rx="-0.500000" width="13.000000" height="13.000000" transform="translate(0.500000 0.500000)" fill="#FFFFFF" fill-opacity="0"/>
	<g clip-path="url(#clip193_3704)">
		<path id="Vector" d="M13.59 8.52C13.39 8.52 13.23 8.68 13.23 8.88L13.23 12.14C13.23 12.75 12.73 13.24 12.13 13.24L1.83 13.24C1.22 13.24 0.73 12.75 0.73 12.14L0.73 2.58C0.73 1.97 1.22 1.48 1.83 1.48L5.09 1.48C5.29 1.48 5.45 1.31 5.45 1.11C5.45 0.91 5.29 0.74 5.09 0.74L1.83 0.74C0.82 0.75 0 1.57 0 2.58L0 12.14C0 13.15 0.82 13.98 1.83 13.98L12.13 13.98C13.14 13.98 13.96 13.15 13.96 12.14L13.96 8.88C13.96 8.68 13.8 8.52 13.59 8.52Z" fill="#4295E4" fill-opacity="1.000000" fill-rule="nonzero"/>
		<path id="Vector" d="M5.73 6.59L11.09 1.23L12.82 2.96L7.46 8.31L5.73 6.59Z" fill="#4295E4" fill-opacity="1.000000" fill-rule="nonzero"/>
		<path id="Vector" d="M4.86 9.19L6.77 8.66L5.39 7.28L4.86 9.19Z" fill="#4295E4" fill-opacity="1.000000" fill-rule="nonzero"/>
		<path id="Vector" d="M13.3 0.32C12.94 -0.04 12.36 -0.04 12 0.32L11.61 0.71L13.34 2.44L13.73 2.05C14.08 1.69 14.08 1.11 13.73 0.75L13.3 0.32Z" fill="#4295E4" fill-opacity="1.000000" fill-rule="nonzero"/>
	</g>
</svg>
