<svg width="24.000000" height="24.000000" viewBox="0 0 24 24" fill="none" xmlns="http://www.w3.org/2000/svg" xmlns:xlink="http://www.w3.org/1999/xlink">
	<desc>
			Created with Pixso.
	</desc>
	<defs>
		<clipPath id="clip282_7014">
			<rect id="Frame" rx="-0.500000" width="23.000000" height="23.000000" transform="translate(0.500000 0.500000)" fill="white" fill-opacity="0"/>
		</clipPath>
	</defs>
	<rect id="Frame" rx="-0.500000" width="23.000000" height="23.000000" transform="translate(0.500000 0.500000)" fill="#FFFFFF" fill-opacity="0"/>
	<g clip-path="url(#clip282_7014)">
		<path id="Vector" d="M2.58 5.58C2.96 5.21 3.46 5 4 5L20 5C20.53 5 21.03 5.21 21.41 5.58C21.78 5.96 22 6.46 22 7L22 17C22 17.53 21.78 18.03 21.41 18.41C21.03 18.78 20.53 19 20 19L4 19C3.46 19 2.96 18.78 2.58 18.41C2.21 18.03 2 17.53 2 17L2 7C2 6.46 2.21 5.96 2.58 5.58Z" stroke="#4295E4" stroke-opacity="1.000000" stroke-width="1.500000" stroke-linejoin="round"/>
		<path id="Vector" d="M12 15C10.34 15 9 13.65 9 12C9 10.34 10.34 9 12 9C13.65 9 15 10.34 15 12C15 13.65 13.65 15 12 15Z" stroke="#4295E4" stroke-opacity="1.000000" stroke-width="1.500000" stroke-linejoin="round"/>
		<path id="Vector" d="M2 9C3.06 9 4.07 8.57 4.82 7.82C5.57 7.07 6 6.06 6 5" stroke="#4295E4" stroke-opacity="1.000000" stroke-width="1.500000" stroke-linejoin="round" stroke-linecap="round"/>
		<path id="Vector" d="M18 19C18 17.93 18.42 16.92 19.17 16.17C19.92 15.42 20.93 15 22 15" stroke="#4295E4" stroke-opacity="1.000000" stroke-width="1.500000" stroke-linejoin="round" stroke-linecap="round"/>
	</g>
</svg>
