<svg width="15.163086" height="11.259781" viewBox="0 0 15.1631 11.2598" fill="none" xmlns="http://www.w3.org/2000/svg" xmlns:xlink="http://www.w3.org/1999/xlink">
	<desc>
			Created with Pixso.
	</desc>
	<defs/>
	<path id="Icon color" d="M14.54 1.8L5.7 10.63C5.62 10.71 5.52 10.75 5.41 10.75C5.29 10.75 5.19 10.71 5.11 10.63L0.62 6.14C0.54 6.06 0.5 5.96 0.5 5.84C0.5 5.73 0.54 5.63 0.62 5.55L1.2 4.96C1.28 4.89 1.39 4.84 1.5 4.84C1.61 4.84 1.71 4.89 1.79 4.96L5.4 8.57L13.36 0.61C13.52 0.46 13.79 0.46 13.95 0.61L14.54 1.21C14.61 1.28 14.66 1.39 14.66 1.5C14.66 1.61 14.61 1.72 14.54 1.8Z" fill="#596469" fill-opacity="1.000000" fill-rule="nonzero"/>
	<path id="Icon color" d="M5.7 10.63C5.62 10.71 5.52 10.75 5.41 10.75C5.29 10.75 5.19 10.71 5.11 10.63L0.62 6.14C0.54 6.06 0.5 5.96 0.5 5.84C0.5 5.73 0.54 5.63 0.62 5.55L1.2 4.96C1.28 4.89 1.39 4.84 1.5 4.84C1.61 4.84 1.71 4.89 1.79 4.96L5.4 8.57L13.36 0.61C13.52 0.46 13.79 0.46 13.95 0.61L14.54 1.21C14.61 1.28 14.66 1.39 14.66 1.5C14.66 1.61 14.61 1.72 14.54 1.8L5.7 10.63Z" stroke="#596469" stroke-opacity="1.000000" stroke-width="1.000000"/>
</svg>
