<svg width="32.000000" height="27.645142" viewBox="0 0 32 27.6451" fill="none" xmlns="http://www.w3.org/2000/svg" xmlns:xlink="http://www.w3.org/1999/xlink">
	<desc>
			Created with Pixso.
	</desc>
	<defs/>
	<path id="Vector" d="M0 20.01C0 20.02 0 20.02 0 20.02C0 24.23 3.41 27.64 7.62 27.64C11.83 27.64 15.24 24.23 15.24 20.02C15.24 15.82 11.83 12.41 7.62 12.41C6.76 12.41 5.93 12.56 5.15 12.82C6.87 2.99 14.53 -3.35 7.42 1.87C-0.45 7.65 0 19.79 0 20.01Z" fill="#4295E4" fill-opacity="1.000000" fill-rule="nonzero"/>
	<path id="Vector" d="M24.38 12.41C23.51 12.41 22.69 12.56 21.91 12.82C23.62 2.99 31.29 -3.35 24.18 1.87C16.3 7.65 16.75 19.79 16.76 20.01C16.76 20.02 16.76 20.02 16.76 20.02C16.76 24.23 20.17 27.64 24.38 27.64C28.58 27.64 32 24.23 32 20.02C32 15.82 28.58 12.41 24.38 12.41Z" fill="#4295E4" fill-opacity="1.000000" fill-rule="nonzero"/>
</svg>
