<svg width="13.333984" height="13.334686" viewBox="0 0 13.334 13.3347" fill="none" xmlns="http://www.w3.org/2000/svg" xmlns:xlink="http://www.w3.org/1999/xlink">
	<desc>
			Created with Pixso.
	</desc>
	<defs/>
	<path id="Vector" d="M12.97 5.79L12.97 5.79C13.45 6.27 13.45 7.05 12.97 7.53C12.74 7.76 12.43 7.89 12.1 7.89L11.9 7.89L11.9 11.89C11.9 12.69 11.26 13.33 10.46 13.33L8.34 13.33C8.12 13.33 7.95 13.15 7.95 12.94L7.95 9.8C7.95 9.44 7.65 9.15 7.29 9.15L6.03 9.15C5.67 9.15 5.38 9.44 5.38 9.8L5.38 12.94C5.38 13.15 5.2 13.33 4.99 13.33L2.86 13.33C2.07 13.33 1.42 12.69 1.42 11.89L1.42 7.89L1.21 7.89C1.19 7.89 1.18 7.89 1.17 7.89C0.86 7.87 0.57 7.75 0.35 7.53C-0.12 7.05 -0.12 6.28 0.35 5.8C0.35 5.79 0.36 5.79 0.36 5.79L5.79 0.35C6.03 0.12 6.33 0 6.66 0C6.99 0 7.3 0.12 7.53 0.35L12.97 5.79Z" fill="#161C24" fill-opacity="1.000000" fill-rule="evenodd"/>
</svg>
