<svg width="24.000000" height="24.000000" viewBox="0 0 24 24" fill="none" xmlns="http://www.w3.org/2000/svg" xmlns:xlink="http://www.w3.org/1999/xlink">
	<desc>
			Created with Pixso.
	</desc>
	<defs/>
	<path id="Vector" d="M19.48 13.48L19.2 13.2C19.17 13.17 19.17 13.13 19.18 13.09L19.19 13.07C19.21 13.03 19.25 13.03 19.28 13.03L19.67 13.03C21.05 13.03 22.17 11.9 22.17 10.51L22.17 9.73C22.17 9.06 21.91 8.44 21.43 7.97C20.96 7.51 20.33 7.26 19.67 7.26L19.28 7.26C19.26 7.26 19.21 7.23 19.19 7.16L19.18 7.15C19.17 7.11 19.17 7.07 19.2 7.04L19.48 6.76C19.95 6.29 20.21 5.67 20.21 5C20.21 4.33 19.95 3.71 19.48 3.24L18.92 2.69C18.46 2.21 17.83 1.95 17.16 1.95C16.5 1.95 15.87 2.21 15.4 2.69L15.12 2.96C15.09 2.99 15.05 3 15.01 2.98L14.99 2.97C14.96 2.96 14.95 2.91 14.95 2.88L14.95 2.49C14.95 1.11 13.82 0 12.43 0L11.65 0C10.26 0 9.14 1.11 9.14 2.49L9.14 2.88C9.14 2.91 9.13 2.96 9.09 2.97L9.08 2.98C9.03 3 8.99 2.99 8.96 2.96L8.69 2.69C8.21 2.21 7.59 1.95 6.92 1.95C6.26 1.95 5.63 2.21 5.16 2.69L4.61 3.24C4.14 3.71 3.88 4.33 3.88 5C3.88 5.67 4.14 6.29 4.61 6.76L4.89 7.04C4.91 7.07 4.92 7.11 4.9 7.15L4.89 7.17C4.88 7.21 4.84 7.21 4.8 7.21L4.41 7.21C3.03 7.21 1.92 8.34 1.92 9.73L1.92 10.51C1.92 11.18 2.18 11.8 2.66 12.27C3.12 12.73 3.75 12.98 4.41 12.98L4.8 12.98C4.82 12.98 4.87 13.01 4.9 13.08L4.9 13.09C4.92 13.13 4.91 13.17 4.89 13.2L4.61 13.48C3.64 14.45 3.64 16.03 4.61 17L5.16 17.55C6.13 18.53 7.71 18.53 8.69 17.55L8.96 17.28C8.99 17.25 9.03 17.24 9.07 17.26L9.09 17.27C9.13 17.28 9.14 17.33 9.14 17.36L9.14 17.75C9.14 19.13 10.26 20.25 11.65 20.25L12.43 20.25C13.82 20.25 14.95 19.13 14.95 17.75L14.95 17.36C14.95 17.33 14.96 17.28 15 17.27L15.01 17.26C15.05 17.24 15.09 17.25 15.12 17.28L15.4 17.55C16.37 18.53 17.95 18.53 18.92 17.55L19.48 17C20.45 16.03 20.45 14.45 19.48 13.48ZM17.87 14.52L18.15 14.8C18.39 15.04 18.39 15.44 18.15 15.68L17.6 16.23C17.36 16.47 16.96 16.47 16.73 16.23L16.45 15.95C15.88 15.39 15.03 15.22 14.29 15.53L14.28 15.53C13.55 15.84 13.07 16.55 13.07 17.36L13.07 17.75C13.07 18.09 12.78 18.37 12.43 18.37L11.65 18.37C11.3 18.37 11.01 18.09 11.01 17.75L11.01 17.36C11.01 16.55 10.54 15.84 9.81 15.53L9.8 15.53C9.55 15.43 9.28 15.38 9.03 15.38C8.51 15.38 8.01 15.57 7.64 15.95L7.36 16.23C7.12 16.47 6.73 16.47 6.48 16.23L5.93 15.68C5.69 15.44 5.69 15.04 5.93 14.8L6.21 14.52C6.78 13.96 6.94 13.11 6.63 12.36L6.63 12.36C6.32 11.61 5.58 11.1 4.8 11.1L4.41 11.1C4.07 11.1 3.79 10.84 3.79 10.51L3.79 9.73C3.79 9.38 4.08 9.09 4.41 9.09L4.8 9.09C5.61 9.09 6.33 8.62 6.63 7.88L6.63 7.87C6.94 7.13 6.78 6.28 6.21 5.72L5.93 5.44C5.82 5.32 5.75 5.17 5.75 5C5.75 4.83 5.82 4.68 5.93 4.56L6.48 4.01C6.6 3.89 6.76 3.83 6.92 3.83C7.09 3.83 7.24 3.89 7.36 4.01L7.64 4.29C8.2 4.85 9.05 5.02 9.8 4.71L9.81 4.71C10.54 4.4 11.01 3.69 11.01 2.88L11.01 2.49C11.01 2.15 11.3 1.87 11.65 1.87L12.43 1.87C12.78 1.87 13.07 2.15 13.07 2.49L13.07 2.88C13.07 3.69 13.55 4.4 14.28 4.71L14.29 4.71C15.03 5.02 15.88 4.85 16.45 4.29L16.73 4.01C16.84 3.89 17 3.83 17.16 3.83C17.33 3.83 17.48 3.89 17.6 4.01L18.15 4.56C18.27 4.68 18.33 4.83 18.33 5C18.33 5.17 18.27 5.32 18.15 5.44L17.87 5.72C17.31 6.28 17.14 7.13 17.45 7.87L17.46 7.88C17.76 8.63 18.5 9.14 19.28 9.14L19.67 9.14C20.02 9.14 20.29 9.4 20.29 9.73L20.29 10.51C20.29 10.86 20.01 11.15 19.67 11.15L19.28 11.15C18.48 11.15 17.76 11.62 17.46 12.35L17.45 12.37C17.14 13.11 17.31 13.96 17.87 14.52ZM24 18.51L24 20.25C24 22.31 22.31 24 20.25 24C19.73 24 19.31 23.58 19.31 23.06C19.31 22.54 19.73 22.12 20.25 22.12C21.28 22.12 22.12 21.28 22.12 20.25L22.12 18.51C22.12 17.99 22.54 17.57 23.06 17.57C23.58 17.57 24 17.99 24 18.51ZM16.45 23.06C16.45 23.58 16.03 24 15.51 24L3.75 24C1.68 24 0 22.31 0 20.25L0 18.51C0 17.99 0.41 17.57 0.93 17.57C1.45 17.57 1.87 17.99 1.87 18.51L1.87 20.25C1.87 21.28 2.71 22.12 3.75 22.12L15.51 22.12C16.03 22.12 16.45 22.54 16.45 23.06ZM15.43 9.95C15.8 10.32 15.8 10.91 15.43 11.28L13.99 12.72C13.46 13.25 12.75 13.54 12 13.54C11.25 13.54 10.54 13.25 10.01 12.72L8.57 11.28C8.21 10.91 8.21 10.32 8.57 9.95C8.94 9.59 9.53 9.59 9.9 9.95L11.11 11.16L11.1 6.89C11.1 6.37 11.52 5.95 12.04 5.95L12.04 5.95C12.56 5.95 12.98 6.37 12.98 6.88L12.98 11.07L14.1 9.95C14.47 9.59 15.06 9.59 15.43 9.95Z" fill="#4295E4" fill-opacity="1.000000" fill-rule="nonzero"/>
	<path id="Vector" d="M19.44 13.03L19.28 13.03C19.25 13.03 19.21 13.03 19.19 13.07L19.18 13.09C19.17 13.13 19.17 13.17 19.2 13.2L19.32 13.32L19.33 13.33L19.48 13.48C20.45 14.45 20.45 16.03 19.48 17L18.92 17.55C17.95 18.53 16.37 18.53 15.4 17.55L15.25 17.4L15.24 17.4L15.12 17.28C15.09 17.25 15.05 17.24 15.01 17.26L15 17.27C14.96 17.28 14.95 17.33 14.95 17.36L14.95 17.75C14.95 19.13 13.82 20.25 12.43 20.25L11.65 20.25C10.26 20.25 9.14 19.13 9.14 17.75L9.14 17.36C9.14 17.33 9.13 17.28 9.09 17.27L9.07 17.26C9.03 17.24 8.99 17.25 8.96 17.28L8.84 17.4L8.83 17.4L8.69 17.55C7.71 18.53 6.13 18.53 5.16 17.55L4.61 17C3.64 16.03 3.64 14.45 4.61 13.48L4.89 13.2C4.91 13.17 4.92 13.13 4.9 13.09L4.9 13.08C4.87 13.01 4.82 12.98 4.8 12.98L4.41 12.98C3.75 12.98 3.12 12.73 2.66 12.27C2.18 11.8 1.92 11.18 1.92 10.51L1.92 9.73C1.92 8.34 3.03 7.21 4.41 7.21L4.8 7.21C4.84 7.21 4.88 7.21 4.89 7.17L4.9 7.15C4.92 7.11 4.91 7.07 4.89 7.04L4.76 6.92L4.76 6.91L4.61 6.76C4.14 6.29 3.88 5.67 3.88 5C3.88 4.33 4.14 3.71 4.61 3.24L5.16 2.69C5.63 2.21 6.26 1.95 6.92 1.95C7.59 1.95 8.21 2.21 8.69 2.69L8.83 2.84L8.84 2.84L8.96 2.96C8.99 2.99 9.03 3 9.08 2.98L9.09 2.97C9.13 2.96 9.14 2.91 9.14 2.88L9.14 2.49C9.14 1.11 10.26 0 11.65 0L12.43 0C13.82 0 14.95 1.11 14.95 2.49L14.95 2.88C14.95 2.91 14.96 2.96 14.99 2.97L15.01 2.98C15.05 3 15.09 2.99 15.12 2.96L15.24 2.84L15.25 2.84L15.4 2.69C15.87 2.21 16.5 1.95 17.16 1.95C17.83 1.95 18.46 2.21 18.92 2.69L19.48 3.24C19.95 3.71 20.21 4.33 20.21 5C20.21 5.67 19.95 6.29 19.48 6.76L19.2 7.04C19.17 7.07 19.17 7.11 19.18 7.15L19.19 7.16C19.21 7.23 19.26 7.26 19.28 7.26L19.67 7.26C20.33 7.26 20.96 7.51 21.43 7.97C21.91 8.44 22.17 9.06 22.17 9.73L22.17 10.51C22.17 11.9 21.05 13.03 19.67 13.03L19.44 13.03ZM18.92 13.32Q18.95 13.37 18.99 13.41L19.26 13.69Q19.44 13.86 19.57 14.06Q19.67 14.23 19.75 14.41Q19.82 14.6 19.86 14.78Q19.91 15.01 19.91 15.24Q19.91 15.47 19.86 15.7Q19.82 15.89 19.75 16.07Q19.67 16.25 19.57 16.42Q19.44 16.62 19.26 16.79L18.71 17.34Q18.54 17.52 18.34 17.64Q18.17 17.75 17.99 17.82Q17.81 17.9 17.62 17.94Q17.39 17.98 17.16 17.98Q16.93 17.98 16.71 17.94Q16.52 17.9 16.33 17.82Q16.15 17.75 15.98 17.64Q15.78 17.51 15.61 17.34L15.33 17.07Q15.29 17.02 15.24 17Q15.18 16.97 15.11 16.96Q15.07 16.95 15.02 16.95Q14.96 16.96 14.89 16.98L14.88 16.99Q14.81 17.02 14.76 17.06Q14.71 17.12 14.68 17.2Q14.65 17.27 14.65 17.36L14.65 17.75Q14.65 17.99 14.6 18.22Q14.55 18.41 14.48 18.6Q14.4 18.77 14.3 18.93Q14.17 19.13 14 19.3Q13.84 19.46 13.66 19.58Q13.49 19.69 13.29 19.77Q13.11 19.85 12.92 19.89Q12.68 19.95 12.43 19.95L11.65 19.95Q11.4 19.95 11.16 19.89Q10.97 19.85 10.79 19.77Q10.6 19.69 10.43 19.58Q10.25 19.46 10.08 19.3Q9.91 19.13 9.78 18.93Q9.68 18.77 9.61 18.6Q9.53 18.41 9.49 18.22Q9.44 17.99 9.44 17.75L9.44 17.36Q9.44 17.27 9.41 17.2Q9.37 17.11 9.31 17.05Q9.27 17.01 9.21 16.99L9.19 16.98Q9.13 16.96 9.07 16.95Q9.02 16.95 8.97 16.96Q8.9 16.97 8.84 17Q8.79 17.02 8.75 17.07L8.48 17.34Q8.3 17.52 8.1 17.64Q7.93 17.75 7.75 17.82Q7.57 17.9 7.38 17.94Q7.16 17.98 6.92 17.98Q6.69 17.98 6.46 17.94Q6.28 17.9 6.1 17.82Q5.91 17.75 5.75 17.64Q5.54 17.52 5.37 17.34L4.82 16.79Q4.65 16.62 4.52 16.42Q4.41 16.25 4.34 16.07Q4.26 15.89 4.23 15.7Q4.18 15.47 4.18 15.24Q4.18 15.01 4.23 14.78Q4.26 14.6 4.34 14.41Q4.41 14.23 4.52 14.06Q4.65 13.86 4.82 13.69L5.1 13.41Q5.14 13.37 5.16 13.32Q5.19 13.26 5.21 13.19Q5.21 13.13 5.21 13.08Q5.2 13.03 5.18 12.97L5.17 12.96Q5.15 12.9 5.11 12.85Q5.08 12.81 5.05 12.78Q4.96 12.7 4.86 12.68Q4.83 12.68 4.8 12.68L4.41 12.68Q4.13 12.68 3.87 12.61Q3.72 12.58 3.57 12.52Q3.39 12.44 3.23 12.34Q3.03 12.22 2.87 12.05Q2.68 11.87 2.54 11.65Q2.45 11.51 2.39 11.35Q2.32 11.2 2.28 11.05Q2.22 10.79 2.22 10.51L2.22 9.73Q2.22 9.48 2.27 9.24Q2.32 9.05 2.39 8.87Q2.47 8.68 2.58 8.51Q2.7 8.32 2.86 8.16Q3.03 7.99 3.23 7.86Q3.39 7.76 3.56 7.69Q3.75 7.61 3.94 7.56Q4.17 7.51 4.41 7.51L4.8 7.51Q4.89 7.51 4.97 7.48Q5.05 7.45 5.1 7.39Q5.15 7.35 5.17 7.29L5.18 7.27Q5.2 7.21 5.21 7.15Q5.21 7.1 5.21 7.05Q5.19 6.98 5.16 6.92Q5.14 6.87 5.1 6.83L4.82 6.55Q4.63 6.37 4.5 6.15Q4.41 6 4.34 5.84Q4.28 5.68 4.24 5.52Q4.17 5.26 4.17 5Q4.17 4.73 4.24 4.48Q4.28 4.32 4.34 4.16Q4.41 4 4.5 3.86Q4.63 3.64 4.82 3.45L5.37 2.9Q5.56 2.71 5.78 2.58Q5.92 2.49 6.08 2.42Q6.24 2.35 6.41 2.31Q6.66 2.25 6.92 2.25Q7.19 2.25 7.44 2.31Q7.6 2.35 7.76 2.42Q7.92 2.49 8.07 2.58Q8.29 2.71 8.48 2.9L8.75 3.17Q8.79 3.22 8.84 3.24Q8.9 3.27 8.97 3.28Q9.02 3.29 9.07 3.29Q9.13 3.28 9.19 3.26L9.21 3.25Q9.27 3.22 9.32 3.18Q9.37 3.12 9.41 3.04Q9.44 2.97 9.44 2.88L9.44 2.49Q9.44 2.25 9.49 2.02Q9.53 1.83 9.61 1.64Q9.68 1.47 9.78 1.31Q9.91 1.11 10.08 0.94Q10.25 0.78 10.43 0.66Q10.6 0.55 10.79 0.47Q10.97 0.39 11.16 0.35Q11.4 0.3 11.65 0.3L12.43 0.3Q12.68 0.3 12.92 0.35Q13.11 0.39 13.29 0.47Q13.49 0.55 13.66 0.66Q13.84 0.78 14 0.94Q14.17 1.11 14.3 1.31Q14.4 1.47 14.48 1.64Q14.55 1.83 14.6 2.02Q14.65 2.25 14.65 2.49L14.65 2.88Q14.65 2.97 14.68 3.04Q14.71 3.12 14.76 3.18Q14.81 3.22 14.88 3.25L14.89 3.26Q14.95 3.28 15.01 3.29Q15.07 3.29 15.12 3.28Q15.19 3.27 15.24 3.24Q15.29 3.22 15.33 3.17L15.61 2.9Q15.8 2.71 16.02 2.58Q16.16 2.49 16.32 2.42Q16.48 2.35 16.64 2.31Q16.9 2.25 17.16 2.25Q17.43 2.25 17.68 2.32Q17.84 2.35 18 2.42Q18.16 2.49 18.3 2.57Q18.53 2.71 18.71 2.9L19.26 3.45Q19.45 3.64 19.58 3.85Q19.67 4 19.74 4.16Q19.81 4.32 19.85 4.49Q19.91 4.74 19.91 5Q19.91 5.26 19.85 5.51Q19.81 5.68 19.74 5.84Q19.67 6 19.58 6.15Q19.45 6.36 19.26 6.55L18.99 6.83Q18.94 6.87 18.92 6.92Q18.89 6.98 18.88 7.05Q18.87 7.09 18.87 7.14Q18.88 7.2 18.91 7.27L18.91 7.28Q18.94 7.34 18.98 7.39Q19 7.43 19.04 7.46Q19.13 7.54 19.23 7.56Q19.25 7.56 19.28 7.56L19.67 7.56Q19.95 7.56 20.22 7.63Q20.37 7.66 20.51 7.72Q20.69 7.8 20.86 7.9Q21.05 8.02 21.22 8.19Q21.41 8.37 21.54 8.59Q21.63 8.73 21.7 8.89Q21.76 9.04 21.8 9.19Q21.87 9.45 21.87 9.73L21.87 10.51Q21.87 10.76 21.81 11Q21.77 11.19 21.69 11.37Q21.61 11.56 21.5 11.73Q21.38 11.92 21.22 12.08Q21.05 12.25 20.85 12.38Q20.69 12.48 20.53 12.55Q20.33 12.63 20.14 12.68Q19.91 12.73 19.67 12.73L19.28 12.73Q19.19 12.73 19.12 12.76Q19.04 12.79 18.99 12.84Q18.94 12.89 18.91 12.96L18.91 12.97Q18.88 13.03 18.87 13.09Q18.87 13.14 18.88 13.19Q18.89 13.26 18.92 13.32ZM18.48 14.74Q18.43 14.66 18.36 14.59L18.08 14.31Q17.9 14.13 17.79 13.91Q17.67 13.7 17.63 13.46Q17.58 13.22 17.6 13Q17.62 12.74 17.73 12.48L17.73 12.47Q17.83 12.24 17.98 12.06Q18.13 11.87 18.34 11.73Q18.53 11.61 18.74 11.54Q19 11.45 19.28 11.45L19.67 11.45Q19.75 11.45 19.83 11.44Q19.93 11.42 20.03 11.37Q20.1 11.35 20.15 11.31Q20.25 11.25 20.32 11.17Q20.39 11.1 20.44 11.03Q20.48 10.95 20.52 10.87Q20.56 10.78 20.58 10.68Q20.59 10.6 20.59 10.51L20.59 9.73Q20.59 9.62 20.57 9.52Q20.55 9.45 20.52 9.38Q20.49 9.3 20.44 9.24Q20.39 9.16 20.32 9.09Q20.2 8.98 20.06 8.91Q19.89 8.84 19.67 8.84L19.28 8.84Q19.1 8.84 18.92 8.8Q18.63 8.73 18.36 8.54Q18.14 8.39 17.98 8.18Q17.83 8 17.73 7.77L17.73 7.76Q17.62 7.5 17.6 7.24Q17.58 7.01 17.63 6.78Q17.67 6.54 17.79 6.33Q17.9 6.11 18.08 5.93L18.36 5.65Q18.44 5.58 18.49 5.49Q18.53 5.43 18.56 5.35Q18.59 5.28 18.61 5.2Q18.63 5.1 18.63 5Q18.63 4.9 18.61 4.8Q18.59 4.72 18.56 4.65Q18.53 4.57 18.49 4.51Q18.44 4.42 18.36 4.35L17.81 3.8Q17.74 3.73 17.66 3.67Q17.59 3.63 17.51 3.6Q17.44 3.57 17.36 3.55Q17.26 3.53 17.16 3.53Q17.06 3.53 16.96 3.55Q16.89 3.57 16.81 3.6Q16.74 3.63 16.67 3.67Q16.58 3.73 16.51 3.8L16.23 4.08Q16.05 4.26 15.83 4.38Q15.62 4.49 15.38 4.53Q15.15 4.58 14.93 4.56Q14.66 4.54 14.4 4.43L14.39 4.43Q14.16 4.33 13.98 4.18Q13.79 4.03 13.65 3.82Q13.53 3.63 13.46 3.43Q13.37 3.17 13.37 2.88L13.37 2.49Q13.37 2.41 13.36 2.33Q13.34 2.23 13.3 2.13Q13.27 2.07 13.23 2.01Q13.17 1.92 13.09 1.84Q13.03 1.77 12.95 1.72Q12.87 1.68 12.79 1.64Q12.7 1.6 12.6 1.59Q12.52 1.57 12.43 1.57L11.65 1.57Q11.57 1.57 11.48 1.59Q11.38 1.6 11.29 1.64Q11.21 1.68 11.14 1.72Q11.06 1.77 10.99 1.84Q10.91 1.92 10.85 2.01Q10.82 2.07 10.79 2.13Q10.75 2.23 10.73 2.33Q10.71 2.41 10.71 2.49L10.71 2.88Q10.71 3.17 10.62 3.43Q10.56 3.63 10.43 3.82Q10.29 4.03 10.1 4.18Q9.92 4.33 9.69 4.43L9.68 4.43Q9.42 4.54 9.16 4.56Q8.94 4.58 8.71 4.53Q8.46 4.49 8.25 4.38Q8.03 4.26 7.85 4.08L7.57 3.8Q7.5 3.73 7.41 3.67Q7.35 3.63 7.27 3.6Q7.2 3.57 7.12 3.55Q7.03 3.53 6.92 3.53Q6.82 3.53 6.72 3.55Q6.64 3.57 6.57 3.6Q6.5 3.63 6.43 3.67Q6.35 3.72 6.27 3.8L5.72 4.35Q5.65 4.42 5.59 4.51Q5.55 4.57 5.52 4.65Q5.49 4.72 5.47 4.8Q5.45 4.9 5.45 5Q5.45 5.1 5.47 5.2Q5.49 5.28 5.52 5.35Q5.55 5.43 5.59 5.49Q5.65 5.58 5.72 5.65L6 5.93Q6.18 6.11 6.3 6.33Q6.41 6.54 6.46 6.78Q6.5 7.01 6.48 7.23Q6.46 7.5 6.35 7.76L6.35 7.77Q6.26 8 6.1 8.19Q5.95 8.37 5.74 8.51Q5.55 8.63 5.35 8.7Q5.09 8.79 4.8 8.79L4.41 8.79Q4.33 8.79 4.25 8.8Q4.15 8.82 4.05 8.87Q3.99 8.89 3.93 8.93Q3.84 8.99 3.76 9.07Q3.69 9.14 3.65 9.21Q3.6 9.29 3.57 9.37Q3.53 9.46 3.51 9.56Q3.49 9.64 3.49 9.73L3.49 10.51Q3.49 10.62 3.51 10.72Q3.53 10.79 3.57 10.86Q3.6 10.94 3.64 11Q3.69 11.08 3.76 11.15Q3.88 11.26 4.02 11.33Q4.2 11.4 4.41 11.4L4.8 11.4Q4.99 11.4 5.16 11.44Q5.46 11.51 5.73 11.7Q5.95 11.85 6.12 12.06Q6.26 12.25 6.35 12.47L6.35 12.48Q6.46 12.74 6.48 13.01Q6.5 13.23 6.46 13.46Q6.41 13.7 6.3 13.91Q6.18 14.13 6 14.31L5.72 14.59Q5.65 14.66 5.6 14.74Q5.55 14.81 5.52 14.89Q5.49 14.97 5.47 15.05Q5.45 15.15 5.45 15.24Q5.45 15.33 5.47 15.43Q5.49 15.51 5.52 15.59Q5.55 15.67 5.6 15.74Q5.65 15.82 5.72 15.89L6.27 16.44Q6.34 16.51 6.42 16.56Q6.5 16.61 6.58 16.64Q6.66 16.67 6.74 16.69Q6.83 16.71 6.92 16.71Q7.01 16.71 7.11 16.69Q7.19 16.67 7.27 16.64Q7.35 16.61 7.42 16.56Q7.5 16.51 7.57 16.44L7.85 16.16Q7.98 16.04 8.13 15.94Q8.25 15.86 8.39 15.8Q8.54 15.74 8.69 15.71Q8.85 15.68 9.03 15.68Q9.17 15.68 9.3 15.7Q9.5 15.73 9.68 15.81L9.69 15.81Q9.92 15.91 10.1 16.05Q10.29 16.21 10.43 16.42Q10.56 16.61 10.62 16.81Q10.71 17.07 10.71 17.36L10.71 17.75Q10.71 17.83 10.73 17.91Q10.75 18.01 10.79 18.11Q10.82 18.17 10.85 18.23Q10.91 18.32 10.99 18.4Q11.06 18.47 11.14 18.52Q11.21 18.56 11.29 18.6Q11.38 18.64 11.48 18.65Q11.57 18.67 11.65 18.67L12.43 18.67Q12.52 18.67 12.6 18.65Q12.7 18.64 12.79 18.6Q12.87 18.56 12.95 18.52Q13.03 18.47 13.09 18.4Q13.17 18.32 13.23 18.23Q13.27 18.17 13.3 18.11Q13.34 18.01 13.36 17.91Q13.37 17.83 13.37 17.75L13.37 17.36Q13.37 17.07 13.46 16.81Q13.53 16.61 13.65 16.42Q13.8 16.21 13.99 16.05Q14.17 15.9 14.39 15.81L14.4 15.81Q14.66 15.7 14.92 15.68Q15.15 15.66 15.38 15.71Q15.62 15.75 15.83 15.87Q16.05 15.98 16.23 16.16L16.51 16.44Q16.58 16.51 16.66 16.56Q16.73 16.61 16.82 16.64Q16.89 16.67 16.98 16.69Q17.07 16.71 17.16 16.71Q17.26 16.71 17.35 16.69Q17.43 16.67 17.51 16.64Q17.59 16.61 17.66 16.56Q17.74 16.51 17.81 16.44L18.36 15.89Q18.43 15.82 18.48 15.74Q18.53 15.67 18.57 15.59Q18.6 15.51 18.61 15.43Q18.63 15.33 18.63 15.24Q18.63 15.15 18.61 15.05Q18.6 14.97 18.57 14.89Q18.53 14.81 18.48 14.74ZM17.87 14.52L18.15 14.8C18.39 15.04 18.39 15.44 18.15 15.68L17.6 16.23C17.36 16.47 16.96 16.47 16.73 16.23L16.45 15.95C15.88 15.39 15.03 15.22 14.29 15.53L14.28 15.53C13.55 15.84 13.07 16.55 13.07 17.36L13.07 17.75C13.07 18.09 12.78 18.37 12.43 18.37L11.65 18.37C11.3 18.37 11.01 18.09 11.01 17.75L11.01 17.36C11.01 16.55 10.54 15.84 9.81 15.53L9.8 15.53C9.55 15.43 9.28 15.38 9.03 15.38C8.51 15.38 8.01 15.57 7.64 15.95L7.36 16.23C7.12 16.47 6.73 16.47 6.48 16.23L5.93 15.68C5.69 15.44 5.69 15.04 5.93 14.8L6.21 14.52C6.78 13.96 6.94 13.11 6.63 12.36L6.63 12.36C6.32 11.61 5.58 11.1 4.8 11.1L4.41 11.1C4.07 11.1 3.79 10.84 3.79 10.51L3.79 9.73C3.79 9.38 4.08 9.09 4.41 9.09L4.8 9.09C5.61 9.09 6.33 8.62 6.63 7.88L6.63 7.87C6.94 7.13 6.78 6.28 6.21 5.72L5.93 5.44C5.82 5.32 5.75 5.17 5.75 5C5.75 4.83 5.82 4.68 5.93 4.56L6.48 4.01C6.6 3.89 6.76 3.83 6.92 3.83C7.09 3.83 7.24 3.89 7.36 4.01L7.64 4.29C8.2 4.85 9.05 5.02 9.8 4.71L9.81 4.71C10.54 4.4 11.01 3.69 11.01 2.88L11.01 2.49C11.01 2.15 11.3 1.87 11.65 1.87L12.43 1.87C12.78 1.87 13.07 2.15 13.07 2.49L13.07 2.88C13.07 3.69 13.55 4.4 14.28 4.71L14.29 4.71C15.03 5.02 15.88 4.85 16.45 4.29L16.73 4.01C16.84 3.89 17 3.83 17.16 3.83C17.33 3.83 17.48 3.89 17.6 4.01L18.15 4.56C18.27 4.68 18.33 4.83 18.33 5C18.33 5.17 18.27 5.32 18.15 5.44L17.87 5.72C17.31 6.28 17.14 7.13 17.45 7.87L17.46 7.88C17.76 8.63 18.5 9.14 19.28 9.14L19.67 9.14C20.02 9.14 20.29 9.4 20.29 9.73L20.29 10.51C20.29 10.86 20.01 11.15 19.67 11.15L19.28 11.15C18.48 11.15 17.76 11.62 17.46 12.35L17.45 12.37C17.14 13.11 17.31 13.96 17.87 14.52ZM10.81 10.86L9.9 9.95C9.53 9.59 8.94 9.59 8.57 9.95C8.21 10.32 8.21 10.91 8.57 11.28L10.01 12.72C10.54 13.25 11.25 13.54 12 13.54C12.75 13.54 13.46 13.25 13.99 12.72L15.43 11.28C15.8 10.91 15.8 10.32 15.43 9.95C15.06 9.59 14.47 9.59 14.1 9.95L12.98 11.07L12.98 10.65L12.98 6.88C12.98 6.37 12.56 5.95 12.04 5.95L12.04 5.95C11.52 5.95 11.1 6.37 11.1 6.89L11.11 10.74L11.11 11.16L10.81 10.86ZM15.22 11.07L15.22 11.07L13.78 12.51Q13.56 12.72 13.31 12.87Q13.14 12.98 12.96 13.05Q12.78 13.13 12.59 13.17Q12.3 13.24 12 13.24Q11.7 13.24 11.41 13.17Q11.22 13.13 11.04 13.05Q10.85 12.98 10.69 12.87Q10.44 12.72 10.23 12.51L8.78 11.07Q8.69 10.97 8.64 10.86Q8.6 10.75 8.6 10.62Q8.6 10.48 8.64 10.37Q8.69 10.26 8.78 10.16Q8.88 10.07 8.99 10.02Q9.1 9.98 9.23 9.98Q9.37 9.98 9.48 10.02Q9.59 10.07 9.69 10.16L11.41 11.89L11.41 6.89Q11.41 6.75 11.45 6.64Q11.5 6.53 11.59 6.44Q11.68 6.34 11.8 6.3Q11.91 6.25 12.04 6.25L12.04 6.25Q12.17 6.25 12.29 6.29Q12.4 6.34 12.49 6.43Q12.58 6.53 12.63 6.64Q12.68 6.75 12.68 6.89L12.68 11.8L14.32 10.16Q14.41 10.07 14.52 10.02Q14.64 9.98 14.76 9.98Q14.9 9.98 15.01 10.02Q15.12 10.07 15.22 10.16Q15.31 10.26 15.36 10.37Q15.41 10.48 15.41 10.62Q15.41 10.75 15.36 10.86Q15.31 10.97 15.22 11.07ZM16.45 23.06C16.45 23.58 16.03 24 15.51 24L3.75 24C1.68 24 0 22.31 0 20.25L0 18.51C0 17.99 0.41 17.57 0.93 17.57C1.45 17.57 1.87 17.99 1.87 18.51L1.87 20.25C1.87 21.28 2.71 22.12 3.75 22.12L15.51 22.12C16.03 22.12 16.45 22.54 16.45 23.06ZM24 18.51L24 20.25C24 22.31 22.31 24 20.25 24C19.73 24 19.31 23.58 19.31 23.06C19.31 22.54 19.73 22.12 20.25 22.12C21.28 22.12 22.12 21.28 22.12 20.25L22.12 18.51C22.12 17.99 22.54 17.57 23.06 17.57C23.58 17.57 24 17.99 24 18.51ZM15.76 23.65Q15.64 23.7 15.51 23.7L3.75 23.7Q3.36 23.7 3 23.61Q2.69 23.55 2.41 23.42Q2.12 23.3 1.86 23.14Q1.57 22.94 1.31 22.68Q1.05 22.43 0.85 22.13Q0.69 21.87 0.57 21.59Q0.44 21.3 0.37 20.99Q0.3 20.63 0.3 20.25L0.3 18.51Q0.3 18.38 0.34 18.27Q0.39 18.15 0.48 18.06Q0.57 17.97 0.69 17.92Q0.8 17.87 0.93 17.87Q1.07 17.87 1.18 17.92Q1.29 17.97 1.38 18.06Q1.48 18.15 1.52 18.27Q1.57 18.38 1.57 18.51L1.57 20.25Q1.57 20.48 1.62 20.71Q1.66 20.9 1.74 21.09Q1.82 21.27 1.92 21.44Q2.05 21.62 2.21 21.78Q2.37 21.94 2.55 22.06Q2.72 22.17 2.9 22.25Q3.08 22.33 3.28 22.37Q3.51 22.42 3.75 22.42L15.51 22.42Q15.64 22.42 15.76 22.47Q15.87 22.51 15.96 22.61Q16.05 22.7 16.1 22.81Q16.15 22.93 16.15 23.06Q16.15 23.19 16.1 23.3Q16.05 23.42 15.96 23.51Q15.87 23.6 15.76 23.65ZM23.69 18.51L23.69 20.25Q23.69 20.63 23.61 20.99Q23.55 21.3 23.42 21.59Q23.3 21.87 23.14 22.13Q22.94 22.43 22.68 22.68Q22.42 22.94 22.13 23.14Q21.87 23.3 21.58 23.42Q21.3 23.55 20.99 23.61Q20.63 23.7 20.25 23.7Q20.11 23.7 20 23.65Q19.89 23.6 19.8 23.51Q19.7 23.42 19.66 23.3Q19.61 23.19 19.61 23.06Q19.61 22.93 19.66 22.81Q19.7 22.7 19.8 22.61Q19.89 22.51 20 22.47Q20.11 22.42 20.25 22.42Q20.48 22.42 20.71 22.37Q20.91 22.33 21.09 22.25Q21.27 22.17 21.44 22.06Q21.62 21.94 21.78 21.78Q21.94 21.62 22.07 21.44Q22.17 21.27 22.25 21.09Q22.33 20.9 22.37 20.71Q22.42 20.48 22.42 20.25L22.42 18.51Q22.42 18.38 22.47 18.27Q22.51 18.15 22.61 18.06Q22.7 17.97 22.81 17.92Q22.92 17.87 23.06 17.87Q23.19 17.87 23.3 17.92Q23.42 17.97 23.51 18.06Q23.6 18.15 23.65 18.27Q23.69 18.38 23.69 18.51Z" fill="#F5FAFF" fill-opacity="1.000000" fill-rule="evenodd"/>
</svg>
