<svg width="94.046875" height="112.000000" viewBox="0 0 94.0469 112" fill="none" xmlns="http://www.w3.org/2000/svg" xmlns:xlink="http://www.w3.org/1999/xlink">
	<desc>
			Created with Pixso.
	</desc>
	<defs/>
	<g opacity="0.800000" style="mix-blend-mode:normal">
		<mask id="mask_312_7402" fill="white">
			<path id="Pattern" d="M2.00391 4C3.11328 4 4.00781 3.10458 4.00781 2C4.00781 0.895416 3.11328 0 2.00391 0C0.898438 0 0 0.895416 0 2C0 3.10458 0.898438 4 2.00391 4ZM20.0117 4C21.1211 4 22.0156 3.10458 22.0156 2C22.0156 0.895416 21.1211 0 20.0117 0C18.9062 0 18.0078 0.895416 18.0078 2C18.0078 3.10458 18.9062 4 20.0117 4ZM38.0195 4C39.1289 4 40.0234 3.10458 40.0234 2C40.0234 0.895416 39.1289 0 38.0195 0C36.9141 0 36.0156 0.895416 36.0156 2C36.0156 3.10458 36.9141 4 38.0195 4ZM56.0273 4C57.1367 4 58.0312 3.10458 58.0312 2C58.0312 0.895416 57.1367 0 56.0273 0C54.9219 0 54.0234 0.895416 54.0234 2C54.0234 3.10458 54.9219 4 56.0273 4ZM74.0352 4C75.1445 4 76.0391 3.10458 76.0391 2C76.0391 0.895416 75.1445 0 74.0352 0C72.9297 0 72.0312 0.895416 72.0312 2C72.0312 3.10458 72.9297 4 74.0352 4ZM92.043 4C93.1523 4 94.0469 3.10458 94.0469 2C94.0469 0.895416 93.1523 0 92.043 0C90.9375 0 90.0391 0.895416 90.0391 2C90.0391 3.10458 90.9375 4 92.043 4ZM2.00391 22C3.11328 22 4.00781 21.1046 4.00781 20C4.00781 18.8954 3.11328 18 2.00391 18C0.898438 18 0 18.8954 0 20C0 21.1046 0.898438 22 2.00391 22ZM20.0117 22C21.1211 22 22.0156 21.1046 22.0156 20C22.0156 18.8954 21.1211 18 20.0117 18C18.9062 18 18.0078 18.8954 18.0078 20C18.0078 21.1046 18.9062 22 20.0117 22ZM38.0195 22C39.1289 22 40.0234 21.1046 40.0234 20C40.0234 18.8954 39.1289 18 38.0195 18C36.9141 18 36.0156 18.8954 36.0156 20C36.0156 21.1046 36.9141 22 38.0195 22ZM56.0273 22C57.1367 22 58.0312 21.1046 58.0312 20C58.0312 18.8954 57.1367 18 56.0273 18C54.9219 18 54.0234 18.8954 54.0234 20C54.0234 21.1046 54.9219 22 56.0273 22ZM74.0352 22C75.1445 22 76.0391 21.1046 76.0391 20C76.0391 18.8954 75.1445 18 74.0352 18C72.9297 18 72.0312 18.8954 72.0312 20C72.0312 21.1046 72.9297 22 74.0352 22ZM92.043 22C93.1523 22 94.0469 21.1046 94.0469 20C94.0469 18.8954 93.1523 18 92.043 18C90.9375 18 90.0391 18.8954 90.0391 20C90.0391 21.1046 90.9375 22 92.043 22ZM2.00391 40C3.11328 40 4.00781 39.1046 4.00781 38C4.00781 36.8954 3.11328 36 2.00391 36C0.898438 36 0 36.8954 0 38C0 39.1046 0.898438 40 2.00391 40ZM20.0117 40C21.1211 40 22.0156 39.1046 22.0156 38C22.0156 36.8954 21.1211 36 20.0117 36C18.9062 36 18.0078 36.8954 18.0078 38C18.0078 39.1046 18.9062 40 20.0117 40ZM38.0195 40C39.1289 40 40.0234 39.1046 40.0234 38C40.0234 36.8954 39.1289 36 38.0195 36C36.9141 36 36.0156 36.8954 36.0156 38C36.0156 39.1046 36.9141 40 38.0195 40ZM56.0273 40C57.1367 40 58.0312 39.1046 58.0312 38C58.0312 36.8954 57.1367 36 56.0273 36C54.9219 36 54.0234 36.8954 54.0234 38C54.0234 39.1046 54.9219 40 56.0273 40ZM74.0352 40C75.1445 40 76.0391 39.1046 76.0391 38C76.0391 36.8954 75.1445 36 74.0352 36C72.9297 36 72.0312 36.8954 72.0312 38C72.0312 39.1046 72.9297 40 74.0352 40ZM92.043 40C93.1523 40 94.0469 39.1046 94.0469 38C94.0469 36.8954 93.1523 36 92.043 36C90.9375 36 90.0391 36.8954 90.0391 38C90.0391 39.1046 90.9375 40 92.043 40ZM2.00391 58C3.11328 58 4.00781 57.1046 4.00781 56C4.00781 54.8954 3.11328 54 2.00391 54C0.898438 54 0 54.8954 0 56C0 57.1046 0.898438 58 2.00391 58ZM20.0117 58C21.1211 58 22.0156 57.1046 22.0156 56C22.0156 54.8954 21.1211 54 20.0117 54C18.9062 54 18.0078 54.8954 18.0078 56C18.0078 57.1046 18.9062 58 20.0117 58ZM38.0195 58C39.1289 58 40.0234 57.1046 40.0234 56C40.0234 54.8954 39.1289 54 38.0195 54C36.9141 54 36.0156 54.8954 36.0156 56C36.0156 57.1046 36.9141 58 38.0195 58ZM56.0273 58C57.1367 58 58.0312 57.1046 58.0312 56C58.0312 54.8954 57.1367 54 56.0273 54C54.9219 54 54.0234 54.8954 54.0234 56C54.0234 57.1046 54.9219 58 56.0273 58ZM74.0352 58C75.1445 58 76.0391 57.1046 76.0391 56C76.0391 54.8954 75.1445 54 74.0352 54C72.9297 54 72.0312 54.8954 72.0312 56C72.0312 57.1046 72.9297 58 74.0352 58ZM92.043 58C93.1523 58 94.0469 57.1046 94.0469 56C94.0469 54.8954 93.1523 54 92.043 54C90.9375 54 90.0391 54.8954 90.0391 56C90.0391 57.1046 90.9375 58 92.043 58ZM2.00391 76C3.11328 76 4.00781 75.1046 4.00781 74C4.00781 72.8954 3.11328 72 2.00391 72C0.898438 72 0 72.8954 0 74C0 75.1046 0.898438 76 2.00391 76ZM20.0117 76C21.1211 76 22.0156 75.1046 22.0156 74C22.0156 72.8954 21.1211 72 20.0117 72C18.9062 72 18.0078 72.8954 18.0078 74C18.0078 75.1046 18.9062 76 20.0117 76ZM38.0195 76C39.1289 76 40.0234 75.1046 40.0234 74C40.0234 72.8954 39.1289 72 38.0195 72C36.9141 72 36.0156 72.8954 36.0156 74C36.0156 75.1046 36.9141 76 38.0195 76ZM56.0273 76C57.1367 76 58.0312 75.1046 58.0312 74C58.0312 72.8954 57.1367 72 56.0273 72C54.9219 72 54.0234 72.8954 54.0234 74C54.0234 75.1046 54.9219 76 56.0273 76ZM74.0352 76C75.1445 76 76.0391 75.1046 76.0391 74C76.0391 72.8954 75.1445 72 74.0352 72C72.9297 72 72.0312 72.8954 72.0312 74C72.0312 75.1046 72.9297 76 74.0352 76ZM92.043 76C93.1523 76 94.0469 75.1046 94.0469 74C94.0469 72.8954 93.1523 72 92.043 72C90.9375 72 90.0391 72.8954 90.0391 74C90.0391 75.1046 90.9375 76 92.043 76ZM2.00391 94C3.11328 94 4.00781 93.1046 4.00781 92C4.00781 90.8954 3.11328 90 2.00391 90C0.898438 90 0 90.8954 0 92C0 93.1046 0.898438 94 2.00391 94ZM20.0117 94C21.1211 94 22.0156 93.1046 22.0156 92C22.0156 90.8954 21.1211 90 20.0117 90C18.9062 90 18.0078 90.8954 18.0078 92C18.0078 93.1046 18.9062 94 20.0117 94ZM38.0195 94C39.1289 94 40.0234 93.1046 40.0234 92C40.0234 90.8954 39.1289 90 38.0195 90C36.9141 90 36.0156 90.8954 36.0156 92C36.0156 93.1046 36.9141 94 38.0195 94ZM56.0273 94C57.1367 94 58.0312 93.1046 58.0312 92C58.0312 90.8954 57.1367 90 56.0273 90C54.9219 90 54.0234 90.8954 54.0234 92C54.0234 93.1046 54.9219 94 56.0273 94ZM74.0352 94C75.1445 94 76.0391 93.1046 76.0391 92C76.0391 90.8954 75.1445 90 74.0352 90C72.9297 90 72.0312 90.8954 72.0312 92C72.0312 93.1046 72.9297 94 74.0352 94ZM92.043 94C93.1523 94 94.0469 93.1046 94.0469 92C94.0469 90.8954 93.1523 90 92.043 90C90.9375 90 90.0391 90.8954 90.0391 92C90.0391 93.1046 90.9375 94 92.043 94ZM2.00391 112C3.11328 112 4.00781 111.105 4.00781 110C4.00781 108.895 3.11328 108 2.00391 108C0.898438 108 0 108.895 0 110C0 111.105 0.898438 112 2.00391 112ZM20.0117 112C21.1211 112 22.0156 111.105 22.0156 110C22.0156 108.895 21.1211 108 20.0117 108C18.9062 108 18.0078 108.895 18.0078 110C18.0078 111.105 18.9062 112 20.0117 112ZM38.0195 112C39.1289 112 40.0234 111.105 40.0234 110C40.0234 108.895 39.1289 108 38.0195 108C36.9141 108 36.0156 108.895 36.0156 110C36.0156 111.105 36.9141 112 38.0195 112ZM56.0273 112C57.1367 112 58.0312 111.105 58.0312 110C58.0312 108.895 57.1367 108 56.0273 108C54.9219 108 54.0234 108.895 54.0234 110C54.0234 111.105 54.9219 112 56.0273 112ZM74.0352 112C75.1445 112 76.0391 111.105 76.0391 110C76.0391 108.895 75.1445 108 74.0352 108C72.9297 108 72.0312 108.895 72.0312 110C72.0312 111.105 72.9297 112 74.0352 112ZM92.043 112C93.1523 112 94.0469 111.105 94.0469 110C94.0469 108.895 93.1523 108 92.043 108C90.9375 108 90.0391 108.895 90.0391 110C90.0391 111.105 90.9375 112 92.043 112Z" clip-rule="evenodd" fill="" fill-opacity="1.000000" fill-rule="evenodd"/>
		</mask>
		<path id="Pattern" d="M2.00391 4C3.11328 4 4.00781 3.10458 4.00781 2C4.00781 0.895416 3.11328 0 2.00391 0C0.898438 0 0 0.895416 0 2C0 3.10458 0.898438 4 2.00391 4ZM20.0117 4C21.1211 4 22.0156 3.10458 22.0156 2C22.0156 0.895416 21.1211 0 20.0117 0C18.9062 0 18.0078 0.895416 18.0078 2C18.0078 3.10458 18.9062 4 20.0117 4ZM38.0195 4C39.1289 4 40.0234 3.10458 40.0234 2C40.0234 0.895416 39.1289 0 38.0195 0C36.9141 0 36.0156 0.895416 36.0156 2C36.0156 3.10458 36.9141 4 38.0195 4ZM56.0273 4C57.1367 4 58.0312 3.10458 58.0312 2C58.0312 0.895416 57.1367 0 56.0273 0C54.9219 0 54.0234 0.895416 54.0234 2C54.0234 3.10458 54.9219 4 56.0273 4ZM74.0352 4C75.1445 4 76.0391 3.10458 76.0391 2C76.0391 0.895416 75.1445 0 74.0352 0C72.9297 0 72.0312 0.895416 72.0312 2C72.0312 3.10458 72.9297 4 74.0352 4ZM92.043 4C93.1523 4 94.0469 3.10458 94.0469 2C94.0469 0.895416 93.1523 0 92.043 0C90.9375 0 90.0391 0.895416 90.0391 2C90.0391 3.10458 90.9375 4 92.043 4ZM2.00391 22C3.11328 22 4.00781 21.1046 4.00781 20C4.00781 18.8954 3.11328 18 2.00391 18C0.898438 18 0 18.8954 0 20C0 21.1046 0.898438 22 2.00391 22ZM20.0117 22C21.1211 22 22.0156 21.1046 22.0156 20C22.0156 18.8954 21.1211 18 20.0117 18C18.9062 18 18.0078 18.8954 18.0078 20C18.0078 21.1046 18.9062 22 20.0117 22ZM38.0195 22C39.1289 22 40.0234 21.1046 40.0234 20C40.0234 18.8954 39.1289 18 38.0195 18C36.9141 18 36.0156 18.8954 36.0156 20C36.0156 21.1046 36.9141 22 38.0195 22ZM56.0273 22C57.1367 22 58.0312 21.1046 58.0312 20C58.0312 18.8954 57.1367 18 56.0273 18C54.9219 18 54.0234 18.8954 54.0234 20C54.0234 21.1046 54.9219 22 56.0273 22ZM74.0352 22C75.1445 22 76.0391 21.1046 76.0391 20C76.0391 18.8954 75.1445 18 74.0352 18C72.9297 18 72.0312 18.8954 72.0312 20C72.0312 21.1046 72.9297 22 74.0352 22ZM92.043 22C93.1523 22 94.0469 21.1046 94.0469 20C94.0469 18.8954 93.1523 18 92.043 18C90.9375 18 90.0391 18.8954 90.0391 20C90.0391 21.1046 90.9375 22 92.043 22ZM2.00391 40C3.11328 40 4.00781 39.1046 4.00781 38C4.00781 36.8954 3.11328 36 2.00391 36C0.898438 36 0 36.8954 0 38C0 39.1046 0.898438 40 2.00391 40ZM20.0117 40C21.1211 40 22.0156 39.1046 22.0156 38C22.0156 36.8954 21.1211 36 20.0117 36C18.9062 36 18.0078 36.8954 18.0078 38C18.0078 39.1046 18.9062 40 20.0117 40ZM38.0195 40C39.1289 40 40.0234 39.1046 40.0234 38C40.0234 36.8954 39.1289 36 38.0195 36C36.9141 36 36.0156 36.8954 36.0156 38C36.0156 39.1046 36.9141 40 38.0195 40ZM56.0273 40C57.1367 40 58.0312 39.1046 58.0312 38C58.0312 36.8954 57.1367 36 56.0273 36C54.9219 36 54.0234 36.8954 54.0234 38C54.0234 39.1046 54.9219 40 56.0273 40ZM74.0352 40C75.1445 40 76.0391 39.1046 76.0391 38C76.0391 36.8954 75.1445 36 74.0352 36C72.9297 36 72.0312 36.8954 72.0312 38C72.0312 39.1046 72.9297 40 74.0352 40ZM92.043 40C93.1523 40 94.0469 39.1046 94.0469 38C94.0469 36.8954 93.1523 36 92.043 36C90.9375 36 90.0391 36.8954 90.0391 38C90.0391 39.1046 90.9375 40 92.043 40ZM2.00391 58C3.11328 58 4.00781 57.1046 4.00781 56C4.00781 54.8954 3.11328 54 2.00391 54C0.898438 54 0 54.8954 0 56C0 57.1046 0.898438 58 2.00391 58ZM20.0117 58C21.1211 58 22.0156 57.1046 22.0156 56C22.0156 54.8954 21.1211 54 20.0117 54C18.9062 54 18.0078 54.8954 18.0078 56C18.0078 57.1046 18.9062 58 20.0117 58ZM38.0195 58C39.1289 58 40.0234 57.1046 40.0234 56C40.0234 54.8954 39.1289 54 38.0195 54C36.9141 54 36.0156 54.8954 36.0156 56C36.0156 57.1046 36.9141 58 38.0195 58ZM56.0273 58C57.1367 58 58.0312 57.1046 58.0312 56C58.0312 54.8954 57.1367 54 56.0273 54C54.9219 54 54.0234 54.8954 54.0234 56C54.0234 57.1046 54.9219 58 56.0273 58ZM74.0352 58C75.1445 58 76.0391 57.1046 76.0391 56C76.0391 54.8954 75.1445 54 74.0352 54C72.9297 54 72.0312 54.8954 72.0312 56C72.0312 57.1046 72.9297 58 74.0352 58ZM92.043 58C93.1523 58 94.0469 57.1046 94.0469 56C94.0469 54.8954 93.1523 54 92.043 54C90.9375 54 90.0391 54.8954 90.0391 56C90.0391 57.1046 90.9375 58 92.043 58ZM2.00391 76C3.11328 76 4.00781 75.1046 4.00781 74C4.00781 72.8954 3.11328 72 2.00391 72C0.898438 72 0 72.8954 0 74C0 75.1046 0.898438 76 2.00391 76ZM20.0117 76C21.1211 76 22.0156 75.1046 22.0156 74C22.0156 72.8954 21.1211 72 20.0117 72C18.9062 72 18.0078 72.8954 18.0078 74C18.0078 75.1046 18.9062 76 20.0117 76ZM38.0195 76C39.1289 76 40.0234 75.1046 40.0234 74C40.0234 72.8954 39.1289 72 38.0195 72C36.9141 72 36.0156 72.8954 36.0156 74C36.0156 75.1046 36.9141 76 38.0195 76ZM56.0273 76C57.1367 76 58.0312 75.1046 58.0312 74C58.0312 72.8954 57.1367 72 56.0273 72C54.9219 72 54.0234 72.8954 54.0234 74C54.0234 75.1046 54.9219 76 56.0273 76ZM74.0352 76C75.1445 76 76.0391 75.1046 76.0391 74C76.0391 72.8954 75.1445 72 74.0352 72C72.9297 72 72.0312 72.8954 72.0312 74C72.0312 75.1046 72.9297 76 74.0352 76ZM92.043 76C93.1523 76 94.0469 75.1046 94.0469 74C94.0469 72.8954 93.1523 72 92.043 72C90.9375 72 90.0391 72.8954 90.0391 74C90.0391 75.1046 90.9375 76 92.043 76ZM2.00391 94C3.11328 94 4.00781 93.1046 4.00781 92C4.00781 90.8954 3.11328 90 2.00391 90C0.898438 90 0 90.8954 0 92C0 93.1046 0.898438 94 2.00391 94ZM20.0117 94C21.1211 94 22.0156 93.1046 22.0156 92C22.0156 90.8954 21.1211 90 20.0117 90C18.9062 90 18.0078 90.8954 18.0078 92C18.0078 93.1046 18.9062 94 20.0117 94ZM38.0195 94C39.1289 94 40.0234 93.1046 40.0234 92C40.0234 90.8954 39.1289 90 38.0195 90C36.9141 90 36.0156 90.8954 36.0156 92C36.0156 93.1046 36.9141 94 38.0195 94ZM56.0273 94C57.1367 94 58.0312 93.1046 58.0312 92C58.0312 90.8954 57.1367 90 56.0273 90C54.9219 90 54.0234 90.8954 54.0234 92C54.0234 93.1046 54.9219 94 56.0273 94ZM74.0352 94C75.1445 94 76.0391 93.1046 76.0391 92C76.0391 90.8954 75.1445 90 74.0352 90C72.9297 90 72.0312 90.8954 72.0312 92C72.0312 93.1046 72.9297 94 74.0352 94ZM92.043 94C93.1523 94 94.0469 93.1046 94.0469 92C94.0469 90.8954 93.1523 90 92.043 90C90.9375 90 90.0391 90.8954 90.0391 92C90.0391 93.1046 90.9375 94 92.043 94ZM2.00391 112C3.11328 112 4.00781 111.105 4.00781 110C4.00781 108.895 3.11328 108 2.00391 108C0.898438 108 0 108.895 0 110C0 111.105 0.898438 112 2.00391 112ZM20.0117 112C21.1211 112 22.0156 111.105 22.0156 110C22.0156 108.895 21.1211 108 20.0117 108C18.9062 108 18.0078 108.895 18.0078 110C18.0078 111.105 18.9062 112 20.0117 112ZM38.0195 112C39.1289 112 40.0234 111.105 40.0234 110C40.0234 108.895 39.1289 108 38.0195 108C36.9141 108 36.0156 108.895 36.0156 110C36.0156 111.105 36.9141 112 38.0195 112ZM56.0273 112C57.1367 112 58.0312 111.105 58.0312 110C58.0312 108.895 57.1367 108 56.0273 108C54.9219 108 54.0234 108.895 54.0234 110C54.0234 111.105 54.9219 112 56.0273 112ZM74.0352 112C75.1445 112 76.0391 111.105 76.0391 110C76.0391 108.895 75.1445 108 74.0352 108C72.9297 108 72.0312 108.895 72.0312 110C72.0312 111.105 72.9297 112 74.0352 112ZM92.043 112C93.1523 112 94.0469 111.105 94.0469 110C94.0469 108.895 93.1523 108 92.043 108C90.9375 108 90.0391 108.895 90.0391 110C90.0391 111.105 90.9375 112 92.043 112Z" clip-rule="evenodd" fill="#7282A0" fill-opacity="1.000000" fill-rule="evenodd" mask="url(#mask_312_7402)"/>
		<path id="Pattern" d="" fill="#979797" fill-opacity="0.000000" fill-rule="nonzero"/>
	</g>
</svg>
