<svg width="163.750000" height="40.000000" viewBox="0 0 163.75 40" fill="none" xmlns="http://www.w3.org/2000/svg" xmlns:xlink="http://www.w3.org/1999/xlink">
	<desc>
			Created with Pixso.
	</desc>
	<defs>
		<clipPath id="clip185_4203">
			<rect id="radisson-dark 1" rx="-0.500000" width="162.750000" height="39.000000" transform="translate(0.500000 0.500000)" fill="white" fill-opacity="0"/>
		</clipPath>
	</defs>
	<rect id="radisson-dark 1" rx="-0.500000" width="162.750000" height="39.000000" transform="translate(0.500000 0.500000)" fill="#FFFFFF" fill-opacity="0"/>
	<g clip-path="url(#clip185_4203)">
		<path id="Vector" d="M10.39 19.52C10.98 19 11.27 18.3 11.27 17.42L11.27 17.36C11.27 16.39 10.96 15.66 10.35 15.17C9.73 14.68 8.87 14.44 7.77 14.44L3.35 14.44L3.35 20.32L7.86 20.32C8.96 20.32 9.8 20.05 10.39 19.52Z" fill="#454F5B" fill-opacity="1.000000" fill-rule="nonzero"/>
		<path id="Vector" d="M31.19 30.83L31.19 22.62L22.98 22.62L22.98 30.83L18.53 30.83L18.53 10.37L22.98 10.37L22.98 18.47L31.19 18.47L31.19 10.37L34.68 10.37C32.98 7.23 30.47 4.61 27.42 2.78C24.36 0.96 20.88 -0.01 17.34 -0.01C13.79 -0.01 10.31 0.96 7.26 2.78C4.21 4.61 1.7 7.23 0 10.37L8.33 10.37C10.89 10.37 12.85 11.07 14.23 12.45C15.38 13.62 15.96 15.18 15.96 17.13L15.96 17.18C15.96 18.84 15.56 20.19 14.76 21.23C13.95 22.28 12.86 23.08 11.62 23.53L16.57 30.83L11.36 30.83L7.02 24.28L3.53 24.28L3.53 30.83L0.72 30.83C2.51 33.64 4.97 35.95 7.87 37.55C10.78 39.15 14.03 39.99 17.34 39.99C20.64 39.99 23.9 39.15 26.8 37.55C29.71 35.95 32.16 33.64 33.96 30.83L31.19 30.83Z" fill="#454F5B" fill-opacity="1.000000" fill-rule="nonzero"/>
		<path id="Vector" d="M44.71 22.9L163.48 22.9L163.48 23.37L44.71 23.37L44.71 22.9Z" fill="#454F5B" fill-opacity="1.000000" fill-rule="evenodd"/>
		<path id="Vector" d="M67.83 5.89L70.33 12.02L65.35 12.02L67.83 5.89ZM66.45 1.65L59.24 19.14L62.52 19.14L64.17 15.03L71.51 15.03L73.14 19.14L76.51 19.14L69.3 1.65L66.45 1.65Z" fill="#454F5B" fill-opacity="1.000000" fill-rule="nonzero"/>
		<path id="Vector" d="M89.79 10.48C89.79 13.81 87.62 16.05 84.41 16.05L81.42 16.05L81.42 4.86L84.41 4.86C87.57 4.86 89.79 7.17 89.79 10.48ZM84.41 1.77L78.24 1.77L78.24 19.14L84.41 19.14C89.45 19.14 93.11 15.48 93.11 10.44C93.11 5.42 89.45 1.78 84.41 1.78L84.41 1.77Z" fill="#454F5B" fill-opacity="1.000000" fill-rule="nonzero"/>
		<path id="Vector" d="M143.34 10.48C143.34 13.81 141.1 16.32 138.12 16.32C135.11 16.32 132.85 13.79 132.85 10.43C132.85 7.1 135.09 4.59 138.07 4.59C141.08 4.59 143.34 7.12 143.34 10.48ZM138.12 1.48C133.22 1.48 129.53 5.35 129.53 10.48C129.53 15.58 133.2 19.43 138.07 19.43C142.97 19.43 146.66 15.56 146.66 10.43C146.66 5.33 142.99 1.48 138.12 1.48L138.12 1.48Z" fill="#454F5B" fill-opacity="1.000000" fill-rule="nonzero"/>
		<path id="Vector" d="M54.96 7.52C54.96 9.17 53.76 10.2 51.84 10.2L47.89 10.2L47.89 4.86L51.82 4.86C53.84 4.86 54.96 5.8 54.96 7.52ZM58.18 7.35C58.18 3.91 55.83 1.77 52.05 1.77L44.71 1.77L44.71 19.14L47.89 19.14L47.89 13.21L51.14 13.21L55.08 19.14L58.85 19.14L54.46 12.62C56.87 11.83 58.18 9.97 58.18 7.35L58.18 7.35Z" fill="#454F5B" fill-opacity="1.000000" fill-rule="nonzero"/>
		<path id="Vector" d="M95.75 1.77L98.93 1.77L98.93 19.14L95.75 19.14L95.75 1.77Z" fill="#454F5B" fill-opacity="1.000000" fill-rule="evenodd"/>
		<path id="Vector" d="M108.69 8.92C105.58 8.13 105.02 7.57 105.02 6.4C105.02 5.29 106 4.54 107.46 4.54C108.85 4.54 110.24 5.1 111.7 6.25L111.85 6.37L113.56 3.82L113.44 3.71C111.71 2.24 109.77 1.53 107.5 1.53C104.17 1.53 101.84 3.64 101.84 6.67C101.84 9.91 103.85 11.06 107.32 11.94C110.3 12.67 110.8 13.29 110.8 14.39C110.8 15.61 109.78 16.37 108.14 16.37C106.33 16.37 104.85 15.72 103.2 14.21L103.06 14.07L101.14 16.5L101.26 16.61C103.18 18.42 105.53 19.38 108.07 19.38C111.66 19.38 113.98 17.31 113.98 14.1C113.98 11.39 112.45 9.89 108.69 8.92Z" fill="#454F5B" fill-opacity="1.000000" fill-rule="nonzero"/>
		<path id="Vector" d="M122.55 8.92C119.44 8.13 118.89 7.57 118.89 6.4C118.89 5.29 119.87 4.54 121.32 4.54C122.72 4.54 124.1 5.1 125.56 6.25L125.71 6.37L127.43 3.82L127.3 3.71C125.58 2.24 123.64 1.53 121.36 1.53C118.03 1.53 115.71 3.64 115.71 6.67C115.71 9.91 117.71 11.06 121.18 11.94C124.16 12.67 124.67 13.29 124.67 14.39C124.67 15.61 123.65 16.37 122.01 16.37C120.19 16.37 118.71 15.72 117.06 14.21L116.92 14.07L115 16.5L115.12 16.61C117.03 18.42 119.39 19.38 121.94 19.38C125.53 19.38 127.85 17.31 127.85 14.1C127.85 11.39 126.32 9.89 122.55 8.92Z" fill="#454F5B" fill-opacity="1.000000" fill-rule="nonzero"/>
		<path id="Vector" d="M160.35 1.77L160.35 13.15L152.09 1.85L152.03 1.77L149.14 1.77L149.14 19.14L152.28 19.14L152.28 7.42L160.8 19.06L160.85 19.14L163.48 19.14L163.48 1.77L160.35 1.77Z" fill="#454F5B" fill-opacity="1.000000" fill-rule="nonzero"/>
		<path id="Vector" d="M44.72 22.89L163.48 22.89L163.48 23.35L44.72 23.35L44.72 22.89Z" fill="#454F5B" fill-opacity="1.000000" fill-rule="evenodd"/>
		<path id="Vector" d="M44.64 27.04L46.62 27.04L46.62 31.77L51.99 31.77L51.99 27.04L53.97 27.04L53.97 38.43L51.99 38.43L51.99 33.62L46.62 33.62L46.62 38.42L44.64 38.42L44.64 27.04Z" fill="#454F5B" fill-opacity="1.000000" fill-rule="nonzero"/>
		<path id="Vector" d="M65.98 32.76L65.98 32.73C65.98 29.53 68.42 26.84 71.88 26.84C75.33 26.84 77.75 29.5 77.75 32.7L77.75 32.73C77.75 35.94 75.3 38.62 71.85 38.62C68.39 38.62 65.98 35.97 65.98 32.76ZM75.67 32.76L75.67 32.73C75.67 30.52 74.08 28.7 71.85 28.7C69.61 28.7 68.05 30.49 68.05 32.7L68.05 32.73C68.05 34.95 69.64 36.77 71.88 36.77C74.12 36.77 75.67 34.98 75.67 32.76L75.67 32.76Z" fill="#454F5B" fill-opacity="1.000000" fill-rule="nonzero"/>
		<path id="Vector" d="M92.75 28.89L89.17 28.89L89.17 27.04L98.32 27.04L98.32 28.89L94.73 28.89L94.73 38.42L92.75 38.42L92.75 28.89Z" fill="#454F5B" fill-opacity="1.000000" fill-rule="nonzero"/>
		<path id="Vector" d="M111.81 27.04L120.16 27.04L120.16 28.83L113.79 28.83L113.79 31.79L119.44 31.79L119.44 33.59L113.79 33.59L113.79 36.64L120.24 36.64L120.24 38.43L111.81 38.43L111.81 27.04Z" fill="#454F5B" fill-opacity="1.000000" fill-rule="nonzero"/>
		<path id="Vector" d="M135.04 27.04L137.02 27.04L137.02 36.6L142.94 36.6L142.94 38.43L135.04 38.43L135.04 27.04Z" fill="#454F5B" fill-opacity="1.000000" fill-rule="nonzero"/>
		<path id="Vector" d="M155.03 36.77L156.22 35.34C157.3 36.28 158.39 36.82 159.77 36.82C161 36.82 161.77 36.23 161.77 35.38L161.77 35.35C161.77 34.54 161.32 34.1 159.23 33.61C156.83 33.03 155.48 32.31 155.48 30.21L155.48 30.18C155.48 28.23 157.09 26.88 159.32 26.88C160.96 26.88 162.27 27.38 163.41 28.31L162.35 29.82C161.33 29.06 160.32 28.65 159.29 28.65C158.13 28.65 157.46 29.25 157.46 30L157.46 30.03C157.46 30.91 157.97 31.3 160.14 31.82C162.52 32.41 163.75 33.27 163.75 35.16L163.75 35.19C163.75 37.32 162.09 38.59 159.73 38.59C157.99 38.6 156.31 37.95 155.03 36.77Z" fill="#454F5B" fill-opacity="1.000000" fill-rule="nonzero"/>
	</g>
</svg>
