<svg width="20.000000" height="20.000000" viewBox="0 0 20 20" fill="none" xmlns="http://www.w3.org/2000/svg" xmlns:xlink="http://www.w3.org/1999/xlink">
	<desc>
			Created with Pixso.
	</desc>
	<defs>
		<clipPath id="clip110_2432">
			<rect id="Frame" rx="-0.500000" width="19.000000" height="19.000000" transform="translate(0.500000 0.500000)" fill="white" fill-opacity="0"/>
		</clipPath>
	</defs>
	<rect id="Frame" rx="-0.500000" width="19.000000" height="19.000000" transform="translate(0.500000 0.500000)" fill="#FFFFFF" fill-opacity="0"/>
	<g clip-path="url(#clip110_2432)">
		<path id="Vector" d="M16.44 13.38C15.74 14.8 14.59 15.97 13.18 16.69C11.77 17.41 10.17 17.66 8.62 17.39C7.06 17.11 5.63 16.34 4.55 15.19C3.45 14.02 2.75 12.54 2.56 10.95C2.35 9.36 2.66 7.75 3.43 6.35C4.19 4.95 5.38 3.84 6.82 3.17C8.25 2.5 9.86 2.33 11.4 2.66C12.94 2.99 14.21 3.75 15.25 4.96C15.38 5.09 15.86 5.63 16.27 6.44" stroke="#4295E4" stroke-opacity="1.000000" stroke-width="1.000000" stroke-linejoin="round" stroke-linecap="round"/>
		<path id="Vector" d="M12.55 6.51L16.75 7.26L17.5 2.99" stroke="#4295E4" stroke-opacity="1.000000" stroke-width="1.000000" stroke-linejoin="round" stroke-linecap="round"/>
	</g>
</svg>
