<svg width="92.000000" height="92.000000" viewBox="0 0 92 92" fill="none" xmlns="http://www.w3.org/2000/svg" xmlns:xlink="http://www.w3.org/1999/xlink">
	<desc>
			Created with Pixso.
	</desc>
	<defs>
		<clipPath id="clip245_6660">
			<rect id="tick 1" rx="-0.500000" width="91.000000" height="91.000000" transform="translate(0.500000 0.500000)" fill="white" fill-opacity="0"/>
		</clipPath>
	</defs>
	<rect id="tick 1" rx="-0.500000" width="91.000000" height="91.000000" transform="translate(0.500000 0.500000)" fill="#FFFFFF" fill-opacity="0"/>
	<g clip-path="url(#clip245_6660)">
		<path id="Vector" d="M12.83 52.62C12.83 28.4 32.48 8.76 56.7 8.76C62.53 8.76 68.29 9.91 73.67 12.16C65.85 5.8 56.08 2.33 46 2.34C21.78 2.34 2.14 21.98 2.14 46.2C2.14 63.88 12.74 79.82 29.03 86.67C18.77 78.34 12.82 65.83 12.83 52.62Z" fill="#22B186" fill-opacity="0.100000" fill-rule="nonzero"/>
		<path id="Vector" d="M46 0.2C27.39 0.2 10.62 11.41 3.5 28.6C-3.62 45.79 0.32 65.58 13.48 78.73C31.44 96.69 60.56 96.69 78.53 78.73C96.49 60.77 96.49 31.64 78.53 13.68C69.92 5.03 58.21 0.17 46 0.2ZM46 87.93C23 87.93 4.28 69.21 4.28 46.2C4.28 23.2 23 4.48 46 4.48C69 4.48 87.73 23.2 87.73 46.2C87.73 69.21 69 87.93 46 87.93Z" fill="#22B186" fill-opacity="1.000000" fill-rule="nonzero"/>
		<path id="Vector" d="M67.87 32.06L40.25 58.47L25.2 43.4C24.37 42.57 23.02 42.57 22.19 43.4C21.35 44.23 21.35 45.59 22.19 46.42L38.73 62.96C39.13 63.36 39.67 63.59 40.25 63.58C40.8 63.59 41.33 63.37 41.72 62.98L70.82 35.16C71.67 34.35 71.69 33 70.89 32.15C70.07 31.3 68.73 31.26 67.87 32.06Z" fill="#22B186" fill-opacity="1.000000" fill-rule="nonzero"/>
	</g>
</svg>
