<svg width="26.000000" height="15.166626" viewBox="0 0 26 15.1666" fill="none" xmlns="http://www.w3.org/2000/svg" xmlns:xlink="http://www.w3.org/1999/xlink">
	<desc>
			Created with Pixso.
	</desc>
	<defs/>
	<path id="Vector" d="M25.4 1.02C25.58 0.43 25.4 0 24.54 0L21.69 0C20.97 0 20.64 0.37 20.46 0.79C20.46 0.79 19.01 4.25 16.96 6.5C16.3 7.15 16 7.36 15.63 7.36C15.45 7.36 15.18 7.15 15.18 6.56L15.18 1.02C15.18 0.31 14.98 0 14.38 0L9.91 0C9.46 0 9.18 0.32 9.18 0.64C9.18 1.31 10.21 1.47 10.32 3.36L10.32 7.47C10.32 8.38 10.15 8.54 9.79 8.54C8.82 8.54 6.48 5.06 5.09 1.08C4.82 0.31 4.54 0 3.82 0L0.97 0C0.16 0 0 0.37 0 0.79C0 1.52 0.96 5.19 4.49 10.05C6.84 13.36 10.15 15.16 13.16 15.16C14.97 15.16 15.19 14.76 15.19 14.08L15.19 11.57C15.19 10.77 15.36 10.61 15.94 10.61C16.36 10.61 17.08 10.82 18.77 12.42C20.7 14.31 21.01 15.16 22.1 15.16L24.94 15.16C25.76 15.16 26.16 14.76 25.93 13.97C25.67 13.19 24.75 12.05 23.53 10.7C22.87 9.93 21.87 9.1 21.57 8.69C21.15 8.16 21.27 7.92 21.57 7.45C21.57 7.45 25.04 2.65 25.4 1.02L25.4 1.02Z" fill="#FFFFFF" fill-opacity="1.000000" fill-rule="evenodd"/>
</svg>
