<?xml version="1.0" encoding="utf-8"?><svg xmlns="http://www.w3.org/2000/svg" xmlns:xlink="http://www.w3.org/1999/xlink"><symbol fill="none" viewBox="0 0 94.047 112" id="Pattern" xmlns="http://www.w3.org/2000/svg"><g opacity=".8" style="mix-blend-mode:normal"><mask id="aaa" fill="#fff"><path d="M2.004 4a2 2 0 100-4A2.003 2.003 0 000 2c0 1.105.898 2 2.004 2zm18.008 0a2 2 0 100-4 2.003 2.003 0 00-2.004 2c0 1.105.898 2 2.004 2zM38.02 4a2 2 0 100-4 2.003 2.003 0 00-2.004 2c0 1.105.898 2 2.004 2zm18.007 0a2 2 0 100-4 2.003 2.003 0 00-2.004 2c0 1.105.899 2 2.004 2zm18.008 0a2 2 0 100-4 2.003 2.003 0 00-2.004 2c0 1.105.899 2 2.004 2zm18.008 0a2 2 0 100-4 2.003 2.003 0 00-2.004 2c0 1.105.898 2 2.004 2zM2.003 22a2 2 0 100-4A2.003 2.003 0 000 20c0 1.105.898 2 2.004 2zm18.009 0a2 2 0 100-4 2.003 2.003 0 00-2.004 2c0 1.105.898 2 2.004 2zm18.008 0a2 2 0 100-4 2.003 2.003 0 00-2.004 2c0 1.105.898 2 2.004 2zm18.007 0a2 2 0 100-4 2.003 2.003 0 00-2.004 2c0 1.105.899 2 2.004 2zm18.008 0a2 2 0 100-4 2.003 2.003 0 00-2.004 2c0 1.105.899 2 2.004 2zm18.008 0a2 2 0 100-4 2.003 2.003 0 00-2.004 2c0 1.105.898 2 2.004 2zM2.003 40a2 2 0 100-4A2.003 2.003 0 000 38c0 1.105.898 2 2.004 2zm18.009 0a2 2 0 100-4 2.003 2.003 0 00-2.004 2c0 1.105.898 2 2.004 2zm18.008 0a2 2 0 100-4 2.003 2.003 0 00-2.004 2c0 1.105.898 2 2.004 2zm18.007 0a2 2 0 100-4 2.003 2.003 0 00-2.004 2c0 1.105.899 2 2.004 2zm18.008 0a2 2 0 100-4 2.003 2.003 0 00-2.004 2c0 1.105.899 2 2.004 2zm18.008 0a2 2 0 100-4 2.003 2.003 0 00-2.004 2c0 1.105.898 2 2.004 2zM2.003 58a2 2 0 100-4A2.003 2.003 0 000 56c0 1.105.898 2 2.004 2zm18.009 0a2 2 0 100-4 2.003 2.003 0 00-2.004 2c0 1.105.898 2 2.004 2zm18.008 0a2 2 0 100-4 2.003 2.003 0 00-2.004 2c0 1.105.898 2 2.004 2zm18.007 0a2 2 0 100-4 2.003 2.003 0 00-2.004 2c0 1.105.899 2 2.004 2zm18.008 0a2 2 0 100-4 2.003 2.003 0 00-2.004 2c0 1.105.899 2 2.004 2zm18.008 0a2 2 0 100-4 2.003 2.003 0 00-2.004 2c0 1.105.898 2 2.004 2zM2.003 76a2 2 0 100-4A2.003 2.003 0 000 74c0 1.105.898 2 2.004 2zm18.009 0a2 2 0 100-4 2.003 2.003 0 00-2.004 2c0 1.105.898 2 2.004 2zm18.008 0a2 2 0 100-4 2.003 2.003 0 00-2.004 2c0 1.105.898 2 2.004 2zm18.007 0a2 2 0 100-4 2.003 2.003 0 00-2.004 2c0 1.105.899 2 2.004 2zm18.008 0a2 2 0 100-4 2.003 2.003 0 00-2.004 2c0 1.105.899 2 2.004 2zm18.008 0a2 2 0 100-4 2.003 2.003 0 00-2.004 2c0 1.105.898 2 2.004 2zM2.003 94a2 2 0 100-4A2.003 2.003 0 000 92c0 1.105.898 2 2.004 2zm18.009 0a2 2 0 100-4 2.003 2.003 0 00-2.004 2c0 1.105.898 2 2.004 2zm18.008 0a2 2 0 100-4 2.003 2.003 0 00-2.004 2c0 1.105.898 2 2.004 2zm18.007 0a2 2 0 100-4 2.003 2.003 0 00-2.004 2c0 1.105.899 2 2.004 2zm18.008 0a2 2 0 100-4 2.003 2.003 0 00-2.004 2c0 1.105.899 2 2.004 2zm18.008 0a2 2 0 100-4 2.003 2.003 0 00-2.004 2c0 1.105.898 2 2.004 2zm-90.04 18a2 2 0 100-4A2.002 2.002 0 000 110c0 1.105.898 2 2.004 2zm18.009 0a2 2 0 100-4 2.002 2.002 0 00-2.004 2c0 1.105.898 2 2.004 2zm18.008 0a2 2 0 100-4 2.003 2.003 0 00-2.004 2c0 1.105.898 2 2.004 2zm18.007 0a2 2 0 100-4 2.003 2.003 0 00-2.004 2c0 1.105.899 2 2.004 2zm18.008 0a2 2 0 100-4 2.003 2.003 0 00-2.004 2c0 1.105.899 2 2.004 2zm18.008 0a2 2 0 100-4 2.002 2.002 0 00-2.004 2c0 1.105.898 2 2.004 2z" clip-rule="evenodd" fill-rule="evenodd"/></mask><path d="M2.004 4a2 2 0 100-4A2.003 2.003 0 000 2c0 1.105.898 2 2.004 2zm18.008 0a2 2 0 100-4 2.003 2.003 0 00-2.004 2c0 1.105.898 2 2.004 2zM38.02 4a2 2 0 100-4 2.003 2.003 0 00-2.004 2c0 1.105.898 2 2.004 2zm18.007 0a2 2 0 100-4 2.003 2.003 0 00-2.004 2c0 1.105.899 2 2.004 2zm18.008 0a2 2 0 100-4 2.003 2.003 0 00-2.004 2c0 1.105.899 2 2.004 2zm18.008 0a2 2 0 100-4 2.003 2.003 0 00-2.004 2c0 1.105.898 2 2.004 2zM2.003 22a2 2 0 100-4A2.003 2.003 0 000 20c0 1.105.898 2 2.004 2zm18.009 0a2 2 0 100-4 2.003 2.003 0 00-2.004 2c0 1.105.898 2 2.004 2zm18.008 0a2 2 0 100-4 2.003 2.003 0 00-2.004 2c0 1.105.898 2 2.004 2zm18.007 0a2 2 0 100-4 2.003 2.003 0 00-2.004 2c0 1.105.899 2 2.004 2zm18.008 0a2 2 0 100-4 2.003 2.003 0 00-2.004 2c0 1.105.899 2 2.004 2zm18.008 0a2 2 0 100-4 2.003 2.003 0 00-2.004 2c0 1.105.898 2 2.004 2zM2.003 40a2 2 0 100-4A2.003 2.003 0 000 38c0 1.105.898 2 2.004 2zm18.009 0a2 2 0 100-4 2.003 2.003 0 00-2.004 2c0 1.105.898 2 2.004 2zm18.008 0a2 2 0 100-4 2.003 2.003 0 00-2.004 2c0 1.105.898 2 2.004 2zm18.007 0a2 2 0 100-4 2.003 2.003 0 00-2.004 2c0 1.105.899 2 2.004 2zm18.008 0a2 2 0 100-4 2.003 2.003 0 00-2.004 2c0 1.105.899 2 2.004 2zm18.008 0a2 2 0 100-4 2.003 2.003 0 00-2.004 2c0 1.105.898 2 2.004 2zM2.003 58a2 2 0 100-4A2.003 2.003 0 000 56c0 1.105.898 2 2.004 2zm18.009 0a2 2 0 100-4 2.003 2.003 0 00-2.004 2c0 1.105.898 2 2.004 2zm18.008 0a2 2 0 100-4 2.003 2.003 0 00-2.004 2c0 1.105.898 2 2.004 2zm18.007 0a2 2 0 100-4 2.003 2.003 0 00-2.004 2c0 1.105.899 2 2.004 2zm18.008 0a2 2 0 100-4 2.003 2.003 0 00-2.004 2c0 1.105.899 2 2.004 2zm18.008 0a2 2 0 100-4 2.003 2.003 0 00-2.004 2c0 1.105.898 2 2.004 2zM2.003 76a2 2 0 100-4A2.003 2.003 0 000 74c0 1.105.898 2 2.004 2zm18.009 0a2 2 0 100-4 2.003 2.003 0 00-2.004 2c0 1.105.898 2 2.004 2zm18.008 0a2 2 0 100-4 2.003 2.003 0 00-2.004 2c0 1.105.898 2 2.004 2zm18.007 0a2 2 0 100-4 2.003 2.003 0 00-2.004 2c0 1.105.899 2 2.004 2zm18.008 0a2 2 0 100-4 2.003 2.003 0 00-2.004 2c0 1.105.899 2 2.004 2zm18.008 0a2 2 0 100-4 2.003 2.003 0 00-2.004 2c0 1.105.898 2 2.004 2zM2.003 94a2 2 0 100-4A2.003 2.003 0 000 92c0 1.105.898 2 2.004 2zm18.009 0a2 2 0 100-4 2.003 2.003 0 00-2.004 2c0 1.105.898 2 2.004 2zm18.008 0a2 2 0 100-4 2.003 2.003 0 00-2.004 2c0 1.105.898 2 2.004 2zm18.007 0a2 2 0 100-4 2.003 2.003 0 00-2.004 2c0 1.105.899 2 2.004 2zm18.008 0a2 2 0 100-4 2.003 2.003 0 00-2.004 2c0 1.105.899 2 2.004 2zm18.008 0a2 2 0 100-4 2.003 2.003 0 00-2.004 2c0 1.105.898 2 2.004 2zm-90.04 18a2 2 0 100-4A2.002 2.002 0 000 110c0 1.105.898 2 2.004 2zm18.009 0a2 2 0 100-4 2.002 2.002 0 00-2.004 2c0 1.105.898 2 2.004 2zm18.008 0a2 2 0 100-4 2.003 2.003 0 00-2.004 2c0 1.105.898 2 2.004 2zm18.007 0a2 2 0 100-4 2.003 2.003 0 00-2.004 2c0 1.105.899 2 2.004 2zm18.008 0a2 2 0 100-4 2.003 2.003 0 00-2.004 2c0 1.105.899 2 2.004 2zm18.008 0a2 2 0 100-4 2.002 2.002 0 00-2.004 2c0 1.105.898 2 2.004 2z" clip-rule="evenodd" fill="#7282A0" fill-rule="evenodd" mask="url(#aaa)"/></g></symbol><symbol fill="none" viewBox="0 0 10 10" id="answer" xmlns="http://www.w3.org/2000/svg"><path d="M.27 0C.12 0 0 .12 0 .27v5.84c0 .61.49 1.11 1.11 1.11h7.04L6.23 9.13a.28.28 0 000 .39l.39.39a.266.266 0 00.4 0l2.85-2.85a.41.41 0 00.13-.29v-.21a.482.482 0 00-.13-.3L7.02 3.41a.297.297 0 00-.2-.08c-.07 0-.15.03-.2.08l-.39.4c-.05.05-.08.12-.08.19s.03.14.08.2l1.92 1.91H1.11V.27C1.11.12.98 0 .83 0H.27z" fill="#4295E4"/><path d="M0 .27v5.84c0 .61.49 1.11 1.11 1.11h7.04L6.23 9.13a.28.28 0 000 .39l.39.39a.266.266 0 00.4 0l2.85-2.85a.41.41 0 00.13-.29v-.21a.482.482 0 00-.13-.3L7.02 3.41a.297.297 0 00-.2-.08c-.07 0-.15.03-.2.08l-.39.4c-.05.05-.08.12-.08.19s.03.14.08.2l1.92 1.91H1.11V.27C1.11.12.98 0 .83 0H.27C.12 0 0 .12 0 .27z"/></symbol><symbol fill="none" viewBox="0 0 22.797 21.186" id="back" xmlns="http://www.w3.org/2000/svg"><path d="M20.34 8.76a.324.324 0 00-.29-.17H2.74c-.12 0-.23.06-.29.17L.29 12.88a.33.33 0 00.13.45c.05.02.1.03.16.03h1.83v7.24c0 .18.15.33.33.33h17.31c.18 0 .32-.15.32-.33v-7.24h1.84a.324.324 0 00.29-.48l-2.16-4.12zm-17.4.48h7.91l-1.82 3.47H1.12l1.82-3.47zm.13 4.12h6.16c.12 0 .23-.06.29-.17l1.55-2.94v10.03h-8v-6.92zm16.65 6.91h-8V10.24l1.55 2.95c.06.11.17.18.29.17h6.16v6.91zm-5.96-7.56l-1.82-3.47h7.91l1.82 3.47h-7.91z" fill="#4295E4"/><path d="M20.05 8.59H2.74c-.12 0-.23.06-.29.17L.29 12.88a.33.33 0 00.13.45c.05.02.1.03.16.03h1.83v7.24c0 .18.15.33.33.33h17.31c.18 0 .32-.15.32-.33v-7.24h1.84a.324.324 0 00.29-.48l-2.16-4.12a.324.324 0 00-.29-.17zm-9.2.65l-1.82 3.47H1.12l1.82-3.47h7.91zm-1.62 4.12c.12 0 .23-.06.29-.17l1.55-2.94v10.03h-8v-6.92h6.16zm2.49 6.91V10.24l1.55 2.95c.06.11.17.18.29.17h6.16v6.91h-8zm.22-11.03h7.91l1.82 3.47h-7.91l-1.82-3.47z" stroke="#4295E4" stroke-width=".5"/><path d="M11.39 7.56c2.02 0 3.66-1.64 3.66-3.66 0-2.02-1.64-3.65-3.66-3.65-2.02 0-3.66 1.63-3.66 3.65.01 2.02 1.64 3.66 3.66 3.66zm0-6.66c1.66 0 3 1.35 3 3 0 1.66-1.34 3.01-3 3.01s-3-1.35-3-3.01c0-1.65 1.34-3 3-3z" fill="#4295E4"/><path d="M15.05 3.9c0-2.02-1.64-3.65-3.66-3.65-2.02 0-3.66 1.63-3.66 3.65h0c.01 2.02 1.64 3.66 3.66 3.66 2.02 0 3.66-1.64 3.66-3.66zm-.66 0c0 1.66-1.34 3.01-3 3.01s-3-1.35-3-3.01c0-1.65 1.34-3 3-3s3 1.35 3 3z" stroke="#4295E4" stroke-width=".5"/><path d="M11.73 4.82h-1.48a.324.324 0 100 .65h1.48a1.351 1.351 0 000-2.7h-.69l.23-.23c.13-.13.14-.33.01-.46s-.34-.14-.46-.01c-.01 0-.01 0-.01.01l-.79.78c-.13.13-.13.34 0 .47l.79.78c.12.13.33.13.46 0a.32.32 0 000-.46l-.23-.23h.69a.7.7 0 01.68.71c0 .38-.31.68-.68.69z" fill="#4295E4"/><path d="M10.25 4.82a.324.324 0 100 .65h1.48a1.351 1.351 0 000-2.7h-.69l.23-.23c.13-.13.14-.33.01-.46s-.34-.14-.46-.01c-.01 0-.01 0-.01.01l-.79.78c-.13.13-.13.34 0 .47 0 0 0 0 0 0l.79.78c.12.13.33.13.46 0a.32.32 0 000-.46l-.23-.23h.69a.7.7 0 01.68.71c0 .38-.31.68-.68.69h0-1.48z" stroke="#4295E4" stroke-width=".5"/></symbol><symbol fill="none" viewBox="0 0 21 21" id="brand" xmlns="http://www.w3.org/2000/svg"><path d="M0 18.76C0 19.99 1 21 2.23 21h16.53C20 21 21 19.99 21 18.76V2.23C21 1 20 0 18.76 0H2.23C1 0 0 1 0 2.23v16.53zm18.76.74H2.23a.73.73 0 01-.73-.74v-1.15l6.72-5.38 6.28 5.58c.31.27.78.24 1.05-.07.28-.31.25-.78-.06-1.06l-1.71-1.52 1.89-1.42 3.83 3.82v1.2c0 .41-.33.74-.74.74zM2.23 1.5h16.53c.41 0 .74.32.74.73v13.2l-3.22-3.22a.747.747 0 00-.98-.06l-2.67 1.99-3.89-3.46a.742.742 0 00-.96-.02L1.5 15.68V2.23c0-.41.32-.73.73-.73z" fill="#4295E4"/><path d="M14.25 9c1.65 0 3-1.35 3-3 0-1.66-1.35-3-3-3-1.66 0-3 1.34-3 3 0 1.65 1.34 3 3 3zm0-4.5c.82 0 1.5.67 1.5 1.5 0 .82-.68 1.5-1.5 1.5-.83 0-1.5-.68-1.5-1.5 0-.83.67-1.5 1.5-1.5z" fill="#4295E4"/></symbol><symbol fill="none" viewBox="0 0 32 32" id="cart" xmlns="http://www.w3.org/2000/svg"><defs><clipPath id="aea"><rect rx="-.5" width="31" height="31" transform="translate(.5 .5)" fill="#fff" fill-opacity="0"/></clipPath></defs><rect rx="-.5" width="31" height="31" transform="translate(.5 .5)" fill="none"/><g clip-path="url(#aea)" stroke="#454F5B" stroke-width="2" stroke-linejoin="round"><path d="M25.05 9.33a2.686 2.686 0 011.98.88 2.66 2.66 0 01.67 2.05l-.8 8c-.06.66-.37 1.27-.86 1.71-.49.45-1.13.69-1.79.69H11.52c-.62 0-1.22-.21-1.7-.6-.47-.39-.8-.94-.92-1.54L6.66 9.33h18.39z"/><path d="M6.66 9.33L5.58 5c-.07-.28-.24-.54-.47-.72-.24-.19-.52-.28-.82-.28H2.66M10.66 28h2.67M21.33 28H24" stroke-linecap="round"/></g></symbol><symbol fill="none" viewBox="0 0 11.672 11.671" id="close" xmlns="http://www.w3.org/2000/svg"><path d="M.5.5l10.66 10.66L.5.5zm10.66 0L.5 11.16" stroke="#161C24" stroke-linejoin="round" stroke-linecap="round"/></symbol><symbol fill="none" viewBox="0 0 13.248 12.24" id="comment" xmlns="http://www.w3.org/2000/svg"><path d="M11.35 0H1.89C.84 0 0 .84 0 1.89v6.39c0 1.04.84 1.89 1.89 1.89h.74l.01 1.66c0 .16.09.3.23.36.05.03.12.05.18.05.08 0 .17-.03.24-.09l2.58-1.98h5.48c1.05 0 1.89-.85 1.89-1.89V1.89C13.24.84 12.4 0 11.35 0zm1.08 8.28c0 .59-.48 1.08-1.08 1.08H5.73c-.09 0-.18.02-.25.08l-2.04 1.57-.01-1.25c0-.23-.18-.4-.4-.4H1.89c-.6 0-1.08-.49-1.08-1.08V1.89c0-.6.48-1.09 1.08-1.09h9.46c.6 0 1.08.49 1.08 1.09v6.39z" fill="#C4CDD5"/></symbol><symbol fill="none" viewBox="0 0 20 20" id="credit" xmlns="http://www.w3.org/2000/svg"><defs><clipPath id="aha"><rect rx="-.5" width="19" height="19" transform="translate(.5 .5)" fill="#fff" fill-opacity="0"/></clipPath></defs><rect rx="-.5" width="19" height="19" transform="translate(.5 .5)" fill="none"/><g clip-path="url(#aha)" fill="#4295E4"><path d="M17.81 3.12H2.18C.98 3.12 0 4.1 0 5.31v9.37c0 1.21.98 2.19 2.18 2.19h15.63c1.2 0 2.19-.98 2.19-2.19V5.31c0-1.21-.99-2.19-2.19-2.19zM2.18 4.37h15.63c.51 0 .94.42.94.94v1.25H1.25V5.31c0-.52.42-.94.93-.94zm15.63 11.25H2.18c-.51 0-.93-.42-.93-.94V7.81h17.5v6.87c0 .52-.43.94-.94.94z"/><path d="M4.37 13.75h-.62c-.35 0-.63-.28-.63-.63v-.62c0-.35.28-.63.63-.63h.62c.34 0 .63.28.63.63v.62c0 .35-.29.63-.63.63z"/></g></symbol><symbol fill="none" viewBox="0 0 12.173 6.836" id="down" xmlns="http://www.w3.org/2000/svg"><path d="M11.41.75L6.08 6.08.75.75" stroke="#161C24" stroke-width="1.5" stroke-linejoin="round" stroke-linecap="round"/></symbol><symbol fill="none" viewBox="0 0 14 14" id="edit" xmlns="http://www.w3.org/2000/svg"><defs><clipPath id="aja"><rect rx="-.5" width="13" height="13" transform="translate(.5 .5)" fill="#fff" fill-opacity="0"/></clipPath></defs><rect rx="-.5" width="13" height="13" transform="translate(.5 .5)" fill="none"/><g clip-path="url(#aja)" fill="#4295E4"><path d="M13.59 8.52c-.2 0-.36.16-.36.36v3.26c0 .61-.5 1.1-1.1 1.1H1.83c-.61 0-1.1-.49-1.1-1.1V2.58c0-.61.49-1.1 1.1-1.1h3.26c.2 0 .36-.17.36-.37 0-.2-.16-.37-.36-.37H1.83C.82.75 0 1.57 0 2.58v9.56c0 1.01.82 1.84 1.83 1.84h10.3c1.01 0 1.83-.83 1.83-1.84V8.88c0-.2-.16-.36-.37-.36z"/><path d="M5.73 6.59l5.36-5.36 1.73 1.73-5.36 5.35-1.73-1.72zM4.86 9.19l1.91-.53-1.38-1.38-.53 1.91zM13.3.32a.917.917 0 00-1.3 0l-.39.39 1.73 1.73.39-.39c.35-.36.35-.94 0-1.3L13.3.32z"/></g></symbol><symbol fill="none" viewBox="0 0 13.001 26" id="facebook" xmlns="http://www.w3.org/2000/svg"><path d="M10.62 4.31H13V.18C12.59.12 11.18 0 9.54 0 6.12 0 3.77 2.15 3.77 6.1v3.65H0v4.62h3.77V26H8.4V14.37h3.63l.57-4.62H8.4V6.56c0-1.33.36-2.25 2.22-2.25z" fill="#FFF"/></symbol><symbol fill="none" viewBox="0 0 24 24" id="frame" xmlns="http://www.w3.org/2000/svg"><defs><clipPath id="ala"><rect rx="-.5" width="23" height="23" transform="translate(.5 .5)" fill="#fff" fill-opacity="0"/></clipPath></defs><rect rx="-.5" width="23" height="23" transform="translate(.5 .5)" fill="none"/><g clip-path="url(#ala)" stroke="#4295E4" stroke-width="1.5" stroke-linejoin="round"><path d="M2.58 5.58C2.96 5.21 3.46 5 4 5h16c.53 0 1.03.21 1.41.58.37.38.59.88.59 1.42v10c0 .53-.22 1.03-.59 1.41-.38.37-.88.59-1.41.59H4c-.54 0-1.04-.22-1.42-.59C2.21 18.03 2 17.53 2 17V7c0-.54.21-1.04.58-1.42z"/><path d="M12 15c-1.66 0-3-1.35-3-3 0-1.66 1.34-3 3-3 1.65 0 3 1.34 3 3 0 1.65-1.35 3-3 3z"/><path d="M2 9c1.06 0 2.07-.43 2.82-1.18A3.99 3.99 0 006 5M18 19c0-1.07.42-2.08 1.17-2.83S20.93 15 22 15" stroke-linecap="round"/></g></symbol><symbol fill="none" viewBox="0 0 12 12" id="gift" xmlns="http://www.w3.org/2000/svg"><defs><clipPath id="ama"><rect rx="-.5" width="11" height="11" transform="translate(.5 .5)" fill="#fff" fill-opacity="0"/></clipPath></defs><rect rx="-.5" width="11" height="11" transform="translate(.5 .5)" fill="none"/><g clip-path="url(#ama)" fill="#4295E4"><path d="M11 4.5H1c-.14 0-.25.11-.25.25v7c0 .13.11.25.25.25h10c.13 0 .25-.12.25-.25v-7c0-.14-.12-.25-.25-.25zm-.25 7h-9.5V5h9.5v6.5z"/><path d="M11.5 2.5H.5c-.14 0-.25.11-.25.25v2c0 .13.11.25.25.25h11c.13 0 .25-.12.25-.25v-2c0-.14-.12-.25-.25-.25zm-.25 2H.75V3h10.5v1.5z"/><path d="M6 2.5c-.14 0-.25.11-.25.25v9c0 .13.11.25.25.25.13 0 .25-.12.25-.25v-9c0-.14-.12-.25-.25-.25z"/><path d="M6.25 2.69C5.99 1.48 4.46.19 3.44.01 3.38 0 3.31 0 3.25 0c-.56 0-1 .44-1 1 0 .23.08.45.22.63l.01.01c.74.94 3.21 1.31 3.49 1.35h.04c.07 0 .13-.03.18-.08.05-.06.08-.14.06-.22zM2.86 1.32c0-.01-.01-.01-.01-.02a.472.472 0 01-.1-.3c0-.28.22-.5.5-.5.03 0 .06 0 .1.01.75.12 1.88 1.03 2.29 1.91-.87-.16-2.34-.53-2.78-1.1z"/><path d="M8.74 0c-.06 0-.13 0-.18.01C7.53.19 6 1.48 5.74 2.69c-.02.08.01.16.06.22.05.05.12.08.18.08h.04c.28-.04 2.75-.41 3.49-1.35 0-.01.01-.01.01-.01.14-.18.22-.4.22-.63 0-.56-.44-1-1-1zm.4 1.3c0 .01-.01.01-.01.02-.44.57-1.91.94-2.78 1.1C6.76 1.54 7.89.63 8.65.5h.09c.28 0 .5.22.5.5 0 .11-.03.21-.1.3z"/></g></symbol><symbol fill="none" viewBox="0 0 9.004 7.002" id="green-yes" xmlns="http://www.w3.org/2000/svg"><path d="M.5 3.5l3 3 5-6" stroke="#24C56E" stroke-linejoin="round" stroke-linecap="round"/></symbol><symbol fill="none" viewBox="0 0 15.163 11.26" id="grey-yes" xmlns="http://www.w3.org/2000/svg"><path d="M14.54 1.8L5.7 10.63a.4.4 0 01-.29.12c-.12 0-.22-.04-.3-.12L.62 6.14a.407.407 0 01-.12-.3.4.4 0 01.12-.29l.58-.59c.08-.07.19-.12.3-.12.11 0 .21.05.29.12L5.4 8.57 13.36.61c.16-.15.43-.15.59 0l.59.6c.07.07.12.18.12.29 0 .11-.05.22-.12.3z" fill="#596469"/><path d="M5.7 10.63a.4.4 0 01-.29.12c-.12 0-.22-.04-.3-.12L.62 6.14a.407.407 0 01-.12-.3.4.4 0 01.12-.29l.58-.59c.08-.07.19-.12.3-.12.11 0 .21.05.29.12L5.4 8.57 13.36.61c.16-.15.43-.15.59 0l.59.6c.07.07.12.18.12.29 0 .11-.05.22-.12.3L5.7 10.63z" stroke="#596469"/></symbol><symbol fill="none" viewBox="0 0 32 27.645" id="group" xmlns="http://www.w3.org/2000/svg"><path d="M0 20.01v.01c0 4.21 3.41 7.62 7.62 7.62s7.62-3.41 7.62-7.62c0-4.2-3.41-7.61-7.62-7.61a7.8 7.8 0 00-2.47.41C6.87 2.99 14.53-3.35 7.42 1.87-.45 7.65 0 19.79 0 20.01zM24.38 12.41c-.87 0-1.69.15-2.47.41 1.71-9.83 9.38-16.17 2.27-10.95-7.88 5.78-7.43 17.92-7.42 18.14v.01c0 4.21 3.41 7.62 7.62 7.62 4.2 0 7.62-3.41 7.62-7.62 0-4.2-3.42-7.61-7.62-7.61z" fill="#4295E4"/></symbol><symbol fill="none" viewBox="0 0 13.334 13.335" id="home" xmlns="http://www.w3.org/2000/svg"><path d="M12.97 5.79a1.231 1.231 0 01-.87 2.1h-.2v4c0 .8-.64 1.44-1.44 1.44H8.34a.39.39 0 01-.39-.39V9.8c0-.36-.3-.65-.66-.65H6.03c-.36 0-.65.29-.65.65v3.14c0 .21-.18.39-.39.39H2.86c-.79 0-1.44-.64-1.44-1.44v-4h-.25c-.31-.02-.6-.14-.82-.36-.47-.48-.47-1.25 0-1.73 0-.01.01-.01.01-.01L5.79.35c.24-.23.54-.35.87-.35.33 0 .64.12.87.35l5.44 5.44z" fill="#161C24" fill-rule="evenodd"/></symbol><symbol fill="none" viewBox="0 0 24 24" id="info" xmlns="http://www.w3.org/2000/svg"><defs><clipPath id="ara"><rect rx="-.5" width="23" height="23" transform="translate(.5 .5)" fill="#fff" fill-opacity="0"/></clipPath></defs><rect rx="-.5" width="23" height="23" transform="translate(.5 .5)" fill="none"/><g clip-path="url(#ara)" stroke="#4D4D4D" stroke-linejoin="round"><path d="M12 22C6.47 22 2 17.52 2 12 2 6.47 6.47 2 12 2c5.52 0 10 4.47 10 10 0 5.52-4.48 10-10 10z"/><path d="M12 7h0M10 11h2v5M10 16h4" stroke-linecap="round"/></g></symbol><symbol fill="none" viewBox="0 0 15.092 15.091" id="krestik" xmlns="http://www.w3.org/2000/svg"><path d="M.87.87l13.34 13.34L.87.87zm13.34 0L.87 14.21" stroke="#181818" stroke-width="1.75" stroke-linejoin="round" stroke-linecap="round"/></symbol><symbol fill="none" viewBox="0 0 15.337 28.675" id="left" xmlns="http://www.w3.org/2000/svg"><path d="M14.33 1L1 14.33l13.33 13.34" stroke="#161C24" stroke-width="2" stroke-linejoin="round" stroke-linecap="round"/></symbol><symbol fill="none" viewBox="0 0 32 32" id="left1" xmlns="http://www.w3.org/2000/svg"><defs><clipPath id="aua"><rect rx="-.5" width="31" height="31" transform="rotate(180 16.25 16.25)" fill="#fff" fill-opacity="0"/></clipPath></defs><rect rx="-.5" width="31" height="31" transform="rotate(180 16.25 16.25)" fill="none"/><g clip-path="url(#aua)"><path d="M21.33 26.66L10.66 16 21.33 5.33" stroke="#161C24" stroke-width="2" stroke-linejoin="round" stroke-linecap="round"/></g></symbol><symbol fill="none" viewBox="0 0 25 23" id="like" xmlns="http://www.w3.org/2000/svg"><path d="M1 6.82c0 2.6 1 8.77 10.91 15.01a1.098 1.098 0 001.17 0C22.99 15.59 24 9.42 24 6.82 24 3.6 21.42 1 18.25 1c-3.18 0-5.75 3.53-5.75 3.53S9.92 1 6.75 1C3.57 1 1 3.6 1 6.82z" stroke="#454F5B" stroke-width="2" stroke-linejoin="round"/></symbol><symbol fill="none" viewBox="0 0 109.6 88" id="logo-footer" xmlns="http://www.w3.org/2000/svg"><defs><filter id="awa" x="0" y="0" width="54.933" height="60.8" filterUnits="userSpaceOnUse" color-interpolation-filters="sRGB"><feFlood flood-opacity="0" result="BackgroundImageFix"/><feColorMatrix in="SourceAlpha" values="0 0 0 0 0 0 0 0 0 0 0 0 0 0 0 0 0 0 127 0" result="hardAlpha"/><feOffset dy="4"/><feGaussianBlur stdDeviation="1.333"/><feComposite in2="hardAlpha" operator="out" k2="-1" k3="1"/><feColorMatrix values="0 0 0 0 0 0 0 0 0 0 0 0 0 0 0 0 0 0 0.25 0"/><feBlend in2="BackgroundImageFix" result="effect_dropShadow_1"/><feBlend in="SourceGraphic" in2="effect_dropShadow_1" result="shape"/></filter></defs><g filter="url(#awa)"><path d="M42.43 27.38h8.5v17.4c-4.77 5.34-11.61 8.02-20.52 8.02-7.52 0-13.81-2.5-18.85-7.5C6.52 40.3 4 34.05 4 26.55S6.55 12.77 11.66 7.7C16.84 2.56 23.09 0 30.41 0c7.33 0 13.4 2.11 18.24 6.35l-4.56 6.56c-3.52-2.99-7.84-4.48-12.95-4.48-5.18 0-9.53 1.7-13.05 5.1-3.46 3.34-5.18 7.68-5.18 13.02 0 5.35 1.65 9.69 4.97 13.02 3.38 3.26 7.56 4.89 12.53 4.89 4.84 0 8.85-1.04 12.02-3.12V27.38z" fill="#FFF"/></g><path stroke="#FFF" d="M60.233 0v35.2"/><path stroke="#4295E4" d="M60.233 35.2v35.2"/><path d="M90.78 88c-8.24 0-15.66-2.57-22.25-7.7l5.22-8.39c5.86 4.49 11.63 6.73 17.3 6.73 2.38 0 4.26-.55 5.63-1.64 1.47-1.2 2.2-2.66 2.2-4.41 0-2.56-3.39-4.85-10.16-6.87-.18-.09-.41-.18-.69-.28-.18-.09-.32-.13-.41-.13C77 62.47 71.69 57.65 71.69 50.87c0-4.77 1.78-8.57 5.35-11.41 3.67-2.84 8.47-4.26 14.43-4.26 5.86 0 11.44 1.74 16.75 5.22l-3.98 7.97c-4.12-2.75-8.65-4.12-13.6-4.12-5.77 0-8.65 1.83-8.65 5.5 0 1.56.55 2.7 1.65 3.44 1.19.64 3.11 1.28 5.76 1.92 4.03 1.1 7.42 2.2 10.17 3.3 1.83.83 3.43 1.7 4.81 2.62 3.48 2.38 5.22 6 5.22 10.86 0 4.76-1.79 8.66-5.36 11.68-3.48 2.94-7.97 4.41-13.46 4.41z" fill="#4295E4"/></symbol><symbol fill="none" viewBox="0 0 50.4 42" id="logo-header" xmlns="http://www.w3.org/2000/svg"><path d="M18.34 13.07h4.06v8.3c-2.28 2.55-5.54 3.83-9.8 3.83-3.59 0-6.59-1.2-9-3.58C1.2 19.23 0 16.25 0 12.67c0-3.58 1.21-6.58 3.65-9C6.13 1.22 9.11 0 12.6 0c3.5 0 6.4 1.01 8.71 3.03l-2.18 3.13c-1.68-1.43-3.74-2.14-6.18-2.14-2.47 0-4.55.81-6.23 2.44-1.65 1.59-2.47 3.66-2.47 6.21s.79 4.62 2.37 6.21c1.62 1.56 3.61 2.34 5.98 2.34 2.31 0 4.22-.5 5.74-1.49v-6.66z" fill="#161C24"/><path stroke="#161C24" d="M27.1 0v16.8"/><path stroke="#4295E4" d="M27.1 16.8v16.8"/><path d="M41.41 42c-3.93 0-7.47-1.23-10.62-3.68l2.5-4c2.79 2.14 5.55 3.21 8.26 3.21 1.13 0 2.03-.26 2.68-.78.7-.57 1.05-1.27 1.05-2.1 0-1.23-1.62-2.32-4.85-3.29-.09-.04-.2-.08-.33-.13a.494.494 0 00-.19-.06c-5.07-1.36-7.61-3.66-7.61-6.89 0-2.28.86-4.09 2.56-5.45 1.75-1.36 4.04-2.04 6.88-2.04 2.8 0 5.47.84 8 2.5l-1.9 3.81c-1.97-1.32-4.13-1.97-6.49-1.97-2.75 0-4.13.87-4.13 2.62 0 .75.26 1.29.79 1.64.56.31 1.48.61 2.75.92 1.92.53 3.54 1.05 4.85 1.58.87.39 1.64.81 2.29 1.24 1.66 1.14 2.49 2.87 2.49 5.19 0 2.27-.85 4.13-2.55 5.58-1.66 1.4-3.8 2.1-6.43 2.1z" fill="#4295E4"/></symbol><symbol fill="none" viewBox="0 0 14.332 14.333" id="lupa" xmlns="http://www.w3.org/2000/svg"><path d="M10.5 10.5l3 3-3-3zm0 0a5.663 5.663 0 01-8.01 0 5.62 5.62 0 01-1.66-4c0-1.51.59-2.95 1.66-4.01a5.663 5.663 0 018.01 0 5.663 5.663 0 010 8.01z" stroke="#ADADAD" stroke-width="1.667" stroke-linejoin="round"/></symbol><symbol fill="none" viewBox="0 0 24 24" id="montaj" xmlns="http://www.w3.org/2000/svg"><path d="M19.48 13.48l-.28-.28c-.03-.03-.03-.07-.02-.11l.01-.02c.02-.04.06-.04.09-.04h.39c1.38 0 2.5-1.13 2.5-2.52v-.78c0-.67-.26-1.29-.74-1.76-.47-.46-1.1-.71-1.76-.71h-.39c-.02 0-.07-.03-.09-.1l-.01-.01c-.01-.04-.01-.08.02-.11l.28-.28c.47-.47.73-1.09.73-1.76 0-.67-.26-1.29-.73-1.76l-.56-.55c-.46-.48-1.09-.74-1.76-.74-.66 0-1.29.26-1.76.74l-.28.27c-.03.03-.07.04-.11.02l-.02-.01c-.03-.01-.04-.06-.04-.09v-.39c0-1.38-1.13-2.49-2.52-2.49h-.78c-1.39 0-2.51 1.11-2.51 2.49v.39c0 .03-.01.08-.05.09l-.01.01c-.05.02-.09.01-.12-.02l-.27-.27a2.474 2.474 0 00-3.53 0l-.55.55c-.47.47-.73 1.09-.73 1.76 0 .67.26 1.29.73 1.76l.28.28c.02.03.03.07.01.11l-.01.02c-.01.04-.05.04-.09.04h-.39c-1.38 0-2.49 1.13-2.49 2.52v.78c0 .67.26 1.29.74 1.76.46.46 1.09.71 1.75.71h.39c.02 0 .07.03.1.1v.01c.02.04.01.08-.01.11l-.28.28c-.97.97-.97 2.55 0 3.52l.55.55c.97.98 2.55.98 3.53 0l.27-.27c.03-.03.07-.04.11-.02l.02.01c.04.01.05.06.05.09v.39c0 1.38 1.12 2.5 2.51 2.5h.78c1.39 0 2.52-1.12 2.52-2.5v-.39c0-.03.01-.08.05-.09l.01-.01c.04-.02.08-.01.11.02l.28.27c.97.98 2.55.98 3.52 0l.56-.55c.97-.97.97-2.55 0-3.52zm-1.61 1.04l.28.28c.24.24.24.64 0 .88l-.55.55c-.24.24-.64.24-.87 0l-.28-.28c-.57-.56-1.42-.73-2.16-.42h-.01a1.98 1.98 0 00-1.21 1.83v.39c0 .34-.29.62-.64.62h-.78c-.35 0-.64-.28-.64-.62v-.39c0-.81-.47-1.52-1.2-1.83H9.8c-.25-.1-.52-.15-.77-.15-.52 0-1.02.19-1.39.57l-.28.28c-.24.24-.63.24-.88 0l-.55-.55a.628.628 0 010-.88l.28-.28c.57-.56.73-1.41.42-2.16-.31-.75-1.05-1.26-1.83-1.26h-.39c-.34 0-.62-.26-.62-.59v-.78c0-.35.29-.64.62-.64h.39c.81 0 1.53-.47 1.83-1.21v-.01c.31-.74.15-1.59-.42-2.15l-.28-.28A.647.647 0 015.75 5c0-.17.07-.32.18-.44l.55-.55a.62.62 0 01.44-.18c.17 0 .32.06.44.18l.28.28c.56.56 1.41.73 2.16.42h.01a1.97 1.97 0 001.2-1.83v-.39c0-.34.29-.62.64-.62h.78c.35 0 .64.28.64.62v.39c0 .81.48 1.52 1.21 1.83h.01c.74.31 1.59.14 2.16-.42l.28-.28c.11-.12.27-.18.43-.18.17 0 .32.06.44.18l.55.55c.12.12.18.27.18.44 0 .17-.06.32-.18.44l-.28.28c-.56.56-.73 1.41-.42 2.15l.01.01c.3.75 1.04 1.26 1.82 1.26h.39c.35 0 .62.26.62.59v.78c0 .35-.28.64-.62.64h-.39c-.8 0-1.52.47-1.82 1.2l-.01.02c-.31.74-.14 1.59.42 2.15zM24 18.51v1.74c0 2.06-1.69 3.75-3.75 3.75a.939.939 0 110-1.88c1.03 0 1.87-.84 1.87-1.87v-1.74a.939.939 0 111.88 0zm-7.55 4.55c0 .52-.42.94-.94.94H3.75C1.68 24 0 22.31 0 20.25v-1.74c0-.52.41-.94.93-.94s.94.42.94.94v1.74c0 1.03.84 1.87 1.88 1.87h11.76c.52 0 .94.42.94.94zM15.43 9.95c.37.37.37.96 0 1.33l-1.44 1.44c-.53.53-1.24.82-1.99.82s-1.46-.29-1.99-.82l-1.44-1.44a.954.954 0 010-1.33c.37-.36.96-.36 1.33 0l1.21 1.21-.01-4.27c0-.52.42-.94.94-.94s.94.42.94.93v4.19l1.12-1.12c.37-.36.96-.36 1.33 0z" fill="#4295E4"/><path d="M19.44 13.03h-.16c-.03 0-.07 0-.09.04l-.01.02c-.01.04-.01.08.02.11l.12.12.01.01.15.15c.97.97.97 2.55 0 3.52l-.56.55c-.97.98-2.55.98-3.52 0l-.15-.15h-.01l-.12-.12c-.03-.03-.07-.04-.11-.02l-.01.01c-.04.01-.05.06-.05.09v.39c0 1.38-1.13 2.5-2.52 2.5h-.78c-1.39 0-2.51-1.12-2.51-2.5v-.39c0-.03-.01-.08-.05-.09l-.02-.01c-.04-.02-.08-.01-.11.02l-.12.12h-.01l-.14.15c-.98.98-2.56.98-3.53 0L4.61 17c-.97-.97-.97-2.55 0-3.52l.28-.28c.02-.03.03-.07.01-.11v-.01c-.03-.07-.08-.1-.1-.1h-.39c-.66 0-1.29-.25-1.75-.71-.48-.47-.74-1.09-.74-1.76v-.78c0-1.39 1.11-2.52 2.49-2.52h.39c.04 0 .08 0 .09-.04l.01-.02c.02-.04.01-.08-.01-.11l-.13-.12v-.01l-.15-.15c-.47-.47-.73-1.09-.73-1.76 0-.67.26-1.29.73-1.76l.55-.55a2.474 2.474 0 013.53 0l.14.15h.01l.12.12c.03.03.07.04.12.02l.01-.01c.04-.01.05-.06.05-.09v-.39C9.14 1.11 10.26 0 11.65 0h.78c1.39 0 2.52 1.11 2.52 2.49v.39c0 .03.01.08.04.09l.02.01c.04.02.08.01.11-.02l.12-.12h.01l.15-.15c.47-.48 1.1-.74 1.76-.74.67 0 1.3.26 1.76.74l.56.55c.47.47.73 1.09.73 1.76 0 .67-.26 1.29-.73 1.76l-.28.28c-.03.03-.03.07-.02.11l.01.01c.02.07.07.1.09.1h.39c.66 0 1.29.25 1.76.71.48.47.74 1.09.74 1.76v.78c0 1.39-1.12 2.52-2.5 2.52h-.23zm-.52.29q.03.05.07.09l.27.28q.18.17.31.37.1.17.18.35.07.19.11.37.05.23.05.46t-.05.46q-.04.19-.11.37-.08.18-.18.35-.13.2-.31.37l-.55.55q-.17.18-.37.3-.17.11-.35.18-.18.08-.37.12-.23.04-.46.04t-.45-.04q-.19-.04-.38-.12-.18-.07-.35-.18-.2-.13-.37-.3l-.28-.27q-.04-.05-.09-.07-.06-.03-.13-.04-.04-.01-.09-.01-.06.01-.13.03l-.01.01q-.07.03-.12.07-.05.06-.08.14-.03.07-.03.16v.39q0 .24-.05.47-.05.19-.12.38-.08.17-.18.33-.13.2-.3.37-.16.16-.34.28-.17.11-.37.19-.18.08-.37.12-.24.06-.49.06h-.78q-.25 0-.49-.06-.19-.04-.37-.12-.19-.08-.36-.19-.18-.12-.35-.28-.17-.17-.3-.37-.1-.16-.17-.33-.08-.19-.12-.38-.05-.23-.05-.47v-.39q0-.09-.03-.16-.04-.09-.1-.15-.04-.04-.1-.06l-.02-.01q-.06-.02-.12-.03-.05 0-.1.01-.07.01-.13.04-.05.02-.09.07l-.27.27q-.18.18-.38.3-.17.11-.35.18-.18.08-.37.12-.22.04-.46.04-.23 0-.46-.04-.18-.04-.36-.12-.19-.07-.35-.18-.21-.12-.38-.3l-.55-.55q-.17-.17-.3-.37-.11-.17-.18-.35-.08-.18-.11-.37-.05-.23-.05-.46t.05-.46q.03-.18.11-.37.07-.18.18-.35.13-.2.3-.37l.28-.28q.04-.04.06-.09.03-.06.05-.13v-.11q-.01-.05-.03-.11l-.01-.01q-.02-.06-.06-.11-.03-.04-.06-.07-.09-.08-.19-.1h-.45q-.28 0-.54-.07-.15-.03-.3-.09-.18-.08-.34-.18-.2-.12-.36-.29-.19-.18-.33-.4-.09-.14-.15-.3-.07-.15-.11-.3-.06-.26-.06-.54v-.78q0-.25.05-.49.05-.19.12-.37.08-.19.19-.36.12-.19.28-.35.17-.17.37-.3.16-.1.33-.17.19-.08.38-.13.23-.05.47-.05h.39q.09 0 .17-.03.08-.03.13-.09.05-.04.07-.1l.01-.02q.02-.06.03-.12v-.1q-.02-.07-.05-.13-.02-.05-.06-.09l-.28-.28q-.19-.18-.32-.4-.09-.15-.16-.31-.06-.16-.1-.32-.07-.26-.07-.52 0-.27.07-.52.04-.16.1-.32.07-.16.16-.3.13-.22.32-.41l.55-.55q.19-.19.41-.32.14-.09.3-.16.16-.07.33-.11.25-.06.51-.06.27 0 .52.06.16.04.32.11t.31.16q.22.13.41.32l.27.27q.04.05.09.07.06.03.13.04.05.01.1.01.06-.01.12-.03l.02-.01q.06-.03.11-.07.05-.06.09-.14.03-.07.03-.16v-.39q0-.24.05-.47.04-.19.12-.38.07-.17.17-.33.13-.2.3-.37.17-.16.35-.28.17-.11.36-.19.18-.08.37-.12.24-.05.49-.05h.78q.25 0 .49.05.19.04.37.12.2.08.37.19.18.12.34.28.17.17.3.37.1.16.18.33.07.19.12.38.05.23.05.47v.39q0 .09.03.16.03.08.08.14.05.04.12.07l.01.01q.06.02.12.03.06 0 .11-.01.07-.01.12-.04.05-.02.09-.07l.28-.27q.19-.19.41-.32.14-.09.3-.16.16-.07.32-.11.26-.06.52-.06.27 0 .52.07.16.03.32.1t.3.15q.23.14.41.33l.55.55q.19.19.32.4.09.15.16.31t.11.33q.06.25.06.51t-.06.51q-.04.17-.11.33t-.16.31q-.13.21-.32.4l-.27.28q-.05.04-.07.09-.03.06-.04.13-.01.04-.01.09.01.06.04.13v.01q.03.06.07.11.02.04.06.07.09.08.19.1h.44q.28 0 .55.07.15.03.29.09.18.08.35.18.19.12.36.29.19.18.32.4.09.14.16.3.06.15.1.3.07.26.07.54v.78q0 .25-.06.49-.04.19-.12.37-.08.19-.19.36-.12.19-.28.35-.17.17-.37.3-.16.1-.32.17-.2.08-.39.13-.23.05-.47.05h-.39q-.09 0-.16.03-.08.03-.13.08t-.08.12v.01q-.03.06-.04.12 0 .05.01.1.01.07.04.13zm-.44 1.42q-.05-.08-.12-.15l-.28-.28q-.18-.18-.29-.4-.12-.21-.16-.45-.05-.24-.03-.46.02-.26.13-.52v-.01q.1-.23.25-.41.15-.19.36-.33.19-.12.4-.19.26-.09.54-.09h.39q.08 0 .16-.01.1-.02.2-.07.07-.02.12-.06.1-.06.17-.14.07-.07.12-.14l.08-.16q.04-.09.06-.19.01-.08.01-.17v-.78q0-.11-.02-.21-.02-.07-.05-.14-.03-.08-.08-.14-.05-.08-.12-.15-.12-.11-.26-.18-.17-.07-.39-.07h-.39q-.18 0-.36-.04-.29-.07-.56-.26-.22-.15-.38-.36-.15-.18-.25-.41v-.01q-.11-.26-.13-.52-.02-.23.03-.46.04-.24.16-.45.11-.22.29-.4l.28-.28q.08-.07.13-.16.04-.06.07-.14.03-.07.05-.15.02-.1.02-.2t-.02-.2q-.02-.08-.05-.15-.03-.08-.07-.14-.05-.09-.13-.16l-.55-.55q-.07-.07-.15-.13-.07-.04-.15-.07-.07-.03-.15-.05-.1-.02-.2-.02t-.2.02q-.07.02-.15.05-.07.03-.14.07-.09.06-.16.13l-.28.28q-.18.18-.4.3-.21.11-.45.15-.23.05-.45.03-.27-.02-.53-.13h-.01q-.23-.1-.41-.25-.19-.15-.33-.36-.12-.19-.19-.39-.09-.26-.09-.55v-.39q0-.08-.01-.16-.02-.1-.06-.2-.03-.06-.07-.12-.06-.09-.14-.17-.06-.07-.14-.12l-.16-.08q-.09-.04-.19-.05-.08-.02-.17-.02h-.78q-.08 0-.17.02-.1.01-.19.05-.08.04-.15.08-.08.05-.15.12-.08.08-.14.17l-.06.12q-.04.1-.06.2-.02.08-.02.16v.39q0 .29-.09.55-.06.2-.19.39-.14.21-.33.36-.18.15-.41.25h-.01q-.26.11-.52.13-.22.02-.45-.03-.25-.04-.46-.15-.22-.12-.4-.3l-.28-.28q-.07-.07-.16-.13-.06-.04-.14-.07-.07-.03-.15-.05-.09-.02-.2-.02-.1 0-.2.02-.08.02-.15.05-.07.03-.14.07-.08.05-.16.13l-.55.55q-.07.07-.13.16-.04.06-.07.14-.03.07-.05.15-.02.1-.02.2t.02.2q.02.08.05.15.03.08.07.14.06.09.13.16l.28.28q.18.18.3.4.11.21.16.45.04.23.02.45-.02.27-.13.53v.01q-.09.23-.25.42-.15.18-.36.32-.19.12-.39.19-.26.09-.55.09h-.39q-.08 0-.16.01-.1.02-.2.07-.06.02-.12.06-.09.06-.17.14-.07.07-.11.14-.05.08-.08.16-.04.09-.06.19-.02.08-.02.17v.78q0 .11.02.21.02.07.06.14.03.08.07.14.05.08.12.15.12.11.26.18.18.07.39.07h.39q.19 0 .36.04.3.07.57.26.22.15.39.36.14.19.23.41v.01q.11.26.13.53.02.22-.02.45-.05.24-.16.45-.12.22-.3.4l-.28.28q-.07.07-.12.15-.05.07-.08.15-.03.08-.05.16-.02.1-.02.19t.02.19q.02.08.05.16.03.08.08.15.05.08.12.15l.55.55q.07.07.15.12.08.05.16.08t.16.05q.09.02.18.02t.19-.02q.08-.02.16-.05.08-.03.15-.08.08-.05.15-.12l.28-.28q.13-.12.28-.22.12-.08.26-.14.15-.06.3-.09.16-.03.34-.03.14 0 .27.02.2.03.38.11h.01q.23.1.41.24.19.16.33.37.13.19.19.39.09.26.09.55v.39q0 .08.02.16.02.1.06.2l.06.12q.06.09.14.17.07.07.15.12.07.04.15.08.09.04.19.05.09.02.17.02h.78q.09 0 .17-.02.1-.01.19-.05l.16-.08q.08-.05.14-.12.08-.08.14-.17.04-.06.07-.12.04-.1.06-.2.01-.08.01-.16v-.39q0-.29.09-.55.07-.2.19-.39.15-.21.34-.37.18-.15.4-.24h.01q.26-.11.52-.13.23-.02.46.03.24.04.45.16.22.11.4.29l.28.28q.07.07.15.12.07.05.16.08.07.03.16.05.09.02.18.02.1 0 .19-.02.08-.02.16-.05.08-.03.15-.08.08-.05.15-.12l.55-.55q.07-.07.12-.15.05-.07.09-.15.03-.08.04-.16.02-.1.02-.19t-.02-.19q-.01-.08-.04-.16-.04-.08-.09-.15zm-.61-.22l.28.28c.24.24.24.64 0 .88l-.55.55c-.24.24-.64.24-.87 0l-.28-.28c-.57-.56-1.42-.73-2.16-.42h-.01a1.98 1.98 0 00-1.21 1.83v.39c0 .34-.29.62-.64.62h-.78c-.35 0-.64-.28-.64-.62v-.39c0-.81-.47-1.52-1.2-1.83H9.8c-.25-.1-.52-.15-.77-.15-.52 0-1.02.19-1.39.57l-.28.28c-.24.24-.63.24-.88 0l-.55-.55a.628.628 0 010-.88l.28-.28c.57-.56.73-1.41.42-2.16-.31-.75-1.05-1.26-1.83-1.26h-.39c-.34 0-.62-.26-.62-.59v-.78c0-.35.29-.64.62-.64h.39c.81 0 1.53-.47 1.83-1.21v-.01c.31-.74.15-1.59-.42-2.15l-.28-.28A.647.647 0 015.75 5c0-.17.07-.32.18-.44l.55-.55a.62.62 0 01.44-.18c.17 0 .32.06.44.18l.28.28c.56.56 1.41.73 2.16.42h.01a1.97 1.97 0 001.2-1.83v-.39c0-.34.29-.62.64-.62h.78c.35 0 .64.28.64.62v.39c0 .81.48 1.52 1.21 1.83h.01c.74.31 1.59.14 2.16-.42l.28-.28c.11-.12.27-.18.43-.18.17 0 .32.06.44.18l.55.55c.12.12.18.27.18.44 0 .17-.06.32-.18.44l-.28.28c-.56.56-.73 1.41-.42 2.15l.01.01c.3.75 1.04 1.26 1.82 1.26h.39c.35 0 .62.26.62.59v.78c0 .35-.28.64-.62.64h-.39c-.8 0-1.52.47-1.82 1.2l-.01.02c-.31.74-.14 1.59.42 2.15zm-7.06-3.66l-.91-.91a.954.954 0 00-1.33 0c-.36.37-.36.96 0 1.33l1.44 1.44c.53.53 1.24.82 1.99.82s1.46-.29 1.99-.82l1.44-1.44c.37-.37.37-.96 0-1.33a.954.954 0 00-1.33 0l-1.12 1.12V6.88c0-.51-.42-.93-.94-.93s-.94.42-.94.94l.01 3.85v.42l-.3-.3zm4.41.21l-1.44 1.44q-.22.21-.47.36-.17.11-.35.18-.18.08-.37.12-.29.07-.59.07t-.59-.07q-.19-.04-.37-.12-.19-.07-.35-.18-.25-.15-.46-.36l-1.45-1.44q-.09-.1-.14-.21-.04-.11-.04-.24 0-.14.04-.25.05-.11.14-.21.1-.09.21-.14.11-.04.24-.04.14 0 .25.04.11.05.21.14l1.72 1.73v-5q0-.14.04-.25.05-.11.14-.2.09-.1.21-.14.11-.05.24-.05t.25.04q.11.05.2.14.09.1.14.21.05.11.05.25v4.91l1.64-1.64q.09-.09.2-.14.12-.04.24-.04.14 0 .25.04.11.05.21.14.09.1.14.21.05.11.05.25 0 .13-.05.24-.05.11-.14.21zm1.23 11.99c0 .52-.42.94-.94.94H3.75C1.68 24 0 22.31 0 20.25v-1.74c0-.52.41-.94.93-.94s.94.42.94.94v1.74c0 1.03.84 1.87 1.88 1.87h11.76c.52 0 .94.42.94.94zM24 18.51v1.74c0 2.06-1.69 3.75-3.75 3.75a.939.939 0 110-1.88c1.03 0 1.87-.84 1.87-1.87v-1.74a.939.939 0 111.88 0zm-8.24 5.14q-.12.05-.25.05H3.75q-.39 0-.75-.09-.31-.06-.59-.19-.29-.12-.55-.28-.29-.2-.55-.46-.26-.25-.46-.55-.16-.26-.28-.54-.13-.29-.2-.6-.07-.36-.07-.74v-1.74q0-.13.04-.24.05-.12.14-.21.09-.09.21-.14.11-.05.24-.05.14 0 .25.05.11.05.2.14.1.09.14.21.05.11.05.24v1.74q0 .23.05.46.04.19.12.38.08.18.18.35.13.18.29.34.16.16.34.28.17.11.35.19.18.08.38.12.23.05.47.05h11.76q.13 0 .25.05.11.04.2.14.09.09.14.2.05.12.05.25t-.05.24q-.05.12-.14.21-.09.09-.2.14zm7.93-5.14v1.74q0 .38-.08.74-.06.31-.19.6-.12.28-.28.54-.2.3-.46.55-.26.26-.55.46-.26.16-.55.28-.28.13-.59.19-.36.09-.74.09-.14 0-.25-.05-.11-.05-.2-.14-.1-.09-.14-.21-.05-.11-.05-.24t.05-.25q.04-.11.14-.2.09-.1.2-.14.11-.05.25-.05.23 0 .46-.05.2-.04.38-.12.18-.08.35-.19.18-.12.34-.28.16-.16.29-.34.1-.17.18-.35.08-.19.12-.38.05-.23.05-.46v-1.74q0-.13.05-.24.04-.12.14-.21.09-.09.2-.14.11-.05.25-.05.13 0 .24.05.12.05.21.14.09.09.14.21.04.11.04.24z" fill="#F5FAFF" fill-rule="evenodd"/></symbol><symbol fill="none" viewBox="0 0 18.75 18.75" id="phone-blue" xmlns="http://www.w3.org/2000/svg"><path d="M18.14 13.5c-.05-.05-3.77-2.73-4.79-2.53-.49.08-.77.41-1.33 1.08-.09.11-.3.36-.47.55a8.545 8.545 0 01-4.98-4.37c-.17-.34-.31-.68-.42-1.03.18-.17.44-.39.55-.48.66-.56.99-.84 1.08-1.33C7.96 4.38 5.28.64 5.25.6 5.13.43 4.97.28 4.78.18 4.6.07 4.39.01 4.18 0 3.1 0 0 4.02 0 4.7c0 .03.05 4.04 4.99 9.06 5.01 4.93 9.01 4.99 9.05 4.99.68 0 4.71-3.11 4.71-4.19a1.41 1.41 0 00-.19-.6c-.1-.19-.25-.34-.42-.46z" fill="#4295E4"/></symbol><symbol fill="none" viewBox="0 0 18 18" id="plus" xmlns="http://www.w3.org/2000/svg"><path d="M9 9v8V1v8m0 0h8-8m0 0H1" stroke="#4295E4" stroke-width="2" stroke-linejoin="round" stroke-linecap="round"/></symbol><symbol fill="none" viewBox="0 0 163.75 40" id="radisson" xmlns="http://www.w3.org/2000/svg"><defs><clipPath id="bca"><rect rx="-.5" width="162.75" height="39" transform="translate(.5 .5)" fill="#fff" fill-opacity="0"/></clipPath></defs><rect rx="-.5" width="162.75" height="39" transform="translate(.5 .5)" fill="none"/><g clip-path="url(#bca)" fill="#454F5B"><path d="M10.39 19.52c.59-.52.88-1.22.88-2.1v-.06c0-.97-.31-1.7-.92-2.19-.62-.49-1.48-.73-2.58-.73H3.35v5.88h4.51c1.1 0 1.94-.27 2.53-.8z"/><path d="M31.19 30.83v-8.21h-8.21v8.21h-4.45V10.37h4.45v8.1h8.21v-8.1h3.49c-1.7-3.14-4.21-5.76-7.26-7.59A19.727 19.727 0 0017.34-.01c-3.55 0-7.03.97-10.08 2.79A19.901 19.901 0 000 10.37h8.33c2.56 0 4.52.7 5.9 2.08 1.15 1.17 1.73 2.73 1.73 4.68v.05c0 1.66-.4 3.01-1.2 4.05a6.98 6.98 0 01-3.14 2.3l4.95 7.3h-5.21l-4.34-6.55H3.53v6.55H.72c1.79 2.81 4.25 5.12 7.15 6.72 2.91 1.6 6.16 2.44 9.47 2.44 3.3 0 6.56-.84 9.46-2.44 2.91-1.6 5.36-3.91 7.16-6.72h-2.77z"/><path d="M44.71 22.9h118.77v.47H44.71v-.47z" fill-rule="evenodd"/><path d="M67.83 5.89l2.5 6.13h-4.98l2.48-6.13zm-1.38-4.24l-7.21 17.49h3.28l1.65-4.11h7.34l1.63 4.11h3.37L69.3 1.65h-2.85zM89.79 10.48c0 3.33-2.17 5.57-5.38 5.57h-2.99V4.86h2.99c3.16 0 5.38 2.31 5.38 5.62zm-5.38-8.71h-6.17v17.37h6.17c5.04 0 8.7-3.66 8.7-8.7 0-5.02-3.66-8.66-8.7-8.66v-.01zM143.34 10.48c0 3.33-2.24 5.84-5.22 5.84-3.01 0-5.27-2.53-5.27-5.89 0-3.33 2.24-5.84 5.22-5.84 3.01 0 5.27 2.53 5.27 5.89zm-5.22-9c-4.9 0-8.59 3.87-8.59 9 0 5.1 3.67 8.95 8.54 8.95 4.9 0 8.59-3.87 8.59-9 0-5.1-3.67-8.95-8.54-8.95zM54.96 7.52c0 1.65-1.2 2.68-3.12 2.68h-3.95V4.86h3.93c2.02 0 3.14.94 3.14 2.66zm3.22-.17c0-3.44-2.35-5.58-6.13-5.58h-7.34v17.37h3.18v-5.93h3.25l3.94 5.93h3.77l-4.39-6.52c2.41-.79 3.72-2.65 3.72-5.27z"/><path d="M95.75 1.77h3.18v17.37h-3.18V1.77z" fill-rule="evenodd"/><path d="M108.69 8.92c-3.11-.79-3.67-1.35-3.67-2.52 0-1.11.98-1.86 2.44-1.86 1.39 0 2.78.56 4.24 1.71l.15.12 1.71-2.55-.12-.11c-1.73-1.47-3.67-2.18-5.94-2.18-3.33 0-5.66 2.11-5.66 5.14 0 3.24 2.01 4.39 5.48 5.27 2.98.73 3.48 1.35 3.48 2.45 0 1.22-1.02 1.98-2.66 1.98-1.81 0-3.29-.65-4.94-2.16l-.14-.14-1.92 2.43.12.11c1.92 1.81 4.27 2.77 6.81 2.77 3.59 0 5.91-2.07 5.91-5.28 0-2.71-1.53-4.21-5.29-5.18zM122.55 8.92c-3.11-.79-3.66-1.35-3.66-2.52 0-1.11.98-1.86 2.43-1.86 1.4 0 2.78.56 4.24 1.71l.15.12 1.72-2.55-.13-.11c-1.72-1.47-3.66-2.18-5.94-2.18-3.33 0-5.65 2.11-5.65 5.14 0 3.24 2 4.39 5.47 5.27 2.98.73 3.49 1.35 3.49 2.45 0 1.22-1.02 1.98-2.66 1.98-1.82 0-3.3-.65-4.95-2.16l-.14-.14L115 16.5l.12.11c1.91 1.81 4.27 2.77 6.82 2.77 3.59 0 5.91-2.07 5.91-5.28 0-2.71-1.53-4.21-5.3-5.18zM160.35 1.77v11.38l-8.26-11.3-.06-.08h-2.89v17.37h3.14V7.42l8.52 11.64.05.08h2.63V1.77h-3.13z"/><path d="M44.72 22.89h118.76v.46H44.72v-.46z" fill-rule="evenodd"/><path d="M44.64 27.04h1.98v4.73h5.37v-4.73h1.98v11.39h-1.98v-4.81h-5.37v4.8h-1.98V27.04zM65.98 32.76v-.03c0-3.2 2.44-5.89 5.9-5.89 3.45 0 5.87 2.66 5.87 5.86v.03c0 3.21-2.45 5.89-5.9 5.89-3.46 0-5.87-2.65-5.87-5.86zm9.69 0v-.03c0-2.21-1.59-4.03-3.82-4.03-2.24 0-3.8 1.79-3.8 4v.03c0 2.22 1.59 4.04 3.83 4.04s3.79-1.79 3.79-4.01zM92.75 28.89h-3.58v-1.85h9.15v1.85h-3.59v9.53h-1.98v-9.53zM111.81 27.04h8.35v1.79h-6.37v2.96h5.65v1.8h-5.65v3.05h6.45v1.79h-8.43V27.04zM135.04 27.04h1.98v9.56h5.92v1.83h-7.9V27.04zM155.03 36.77l1.19-1.43c1.08.94 2.17 1.48 3.55 1.48 1.23 0 2-.59 2-1.44v-.03c0-.81-.45-1.25-2.54-1.74-2.4-.58-3.75-1.3-3.75-3.4v-.03c0-1.95 1.61-3.3 3.84-3.3 1.64 0 2.95.5 4.09 1.43l-1.06 1.51c-1.02-.76-2.03-1.17-3.06-1.17-1.16 0-1.83.6-1.83 1.35v.03c0 .88.51 1.27 2.68 1.79 2.38.59 3.61 1.45 3.61 3.34v.03c0 2.13-1.66 3.4-4.02 3.4-1.74.01-3.42-.64-4.7-1.82z"/></g></symbol><symbol fill="none" viewBox="0 0 9.004 9.004" id="red-no" xmlns="http://www.w3.org/2000/svg"><path d="M.5.5l8 8-8-8zm8 0l-8 8" stroke="#E44286" stroke-linejoin="round" stroke-linecap="round"/></symbol><symbol fill="none" viewBox="0 0 15.337 28.675" id="right" xmlns="http://www.w3.org/2000/svg"><path d="M1 1l13.33 13.33L1 27.67" stroke="#161C24" stroke-width="2" stroke-linejoin="round" stroke-linecap="round"/></symbol><symbol fill="none" viewBox="0 0 20 20" id="show-yet" xmlns="http://www.w3.org/2000/svg"><defs><clipPath id="bfa"><rect rx="-.5" width="19" height="19" transform="translate(.5 .5)" fill="#fff" fill-opacity="0"/></clipPath></defs><rect rx="-.5" width="19" height="19" transform="translate(.5 .5)" fill="none"/><g clip-path="url(#bfa)" stroke="#4295E4" stroke-linejoin="round" stroke-linecap="round"><path d="M16.44 13.38a7.403 7.403 0 01-3.26 3.31c-1.41.72-3.01.97-4.56.7a7.367 7.367 0 01-4.07-2.2 7.484 7.484 0 01-1.99-4.24c-.21-1.59.1-3.2.87-4.6.76-1.4 1.95-2.51 3.39-3.18 1.43-.67 3.04-.84 4.58-.51 1.54.33 2.81 1.09 3.85 2.3.13.13.61.67 1.02 1.48"/><path d="M12.55 6.51l4.2.75.75-4.27"/></g></symbol><symbol fill="none" viewBox="0 0 13.836 13.834" id="star-empty" xmlns="http://www.w3.org/2000/svg"><path d="M7.53.67l1.38 3.82c.1.25.34.42.62.42h3.39c.63 0 .9.78.41 1.16l-2.42 2.18a.6.6 0 00-.22.32.61.61 0 00.01.4l.88 3.74c.21.6-.48 1.11-1.01.74L7.3 11.37a.776.776 0 00-.39-.12c-.13 0-.27.05-.38.12l-3.28 2.08c-.52.37-1.22-.14-1-.74l.88-3.74a.618.618 0 00-.22-.72L.5 6.07C.01 5.69.28 4.91.91 4.91H4.3c.13 0 .26-.04.37-.11.11-.08.2-.19.24-.31L6.29.67h.01C6.51.1 7.32.1 7.53.67z" stroke="#C4CDD5" stroke-width=".5" stroke-linejoin="round"/></symbol><symbol fill="none" viewBox="0 0 13.334 13.334" id="star-pull" xmlns="http://www.w3.org/2000/svg"><path d="M6.04.42c.22-.57 1.03-.57 1.24 0l1.38 3.82c.1.25.34.42.62.42h3.39c.62 0 .9.78.41 1.16L10.66 8c-.11.08-.19.19-.22.32a.61.61 0 00.01.4l.88 3.74c.21.6-.48 1.11-1.01.74l-3.27-2.08a.776.776 0 00-.39-.12c-.13 0-.27.05-.38.12L3 13.2c-.52.37-1.22-.14-1-.74l.88-3.74A.618.618 0 002.66 8L.25 5.82c-.49-.38-.22-1.16.41-1.16h3.39c.13 0 .26-.04.37-.11.11-.08.2-.19.24-.31L6.04.42z" fill="#F7AB3A"/></symbol><symbol fill="none" viewBox="0 0 92 92" id="succes" xmlns="http://www.w3.org/2000/svg"><defs><clipPath id="bia"><rect rx="-.5" width="91" height="91" transform="translate(.5 .5)" fill="#fff" fill-opacity="0"/></clipPath></defs><rect rx="-.5" width="91" height="91" transform="translate(.5 .5)" fill="none"/><g clip-path="url(#bia)" fill="#22B186"><path d="M12.83 52.62c0-24.22 19.65-43.86 43.87-43.86 5.83 0 11.59 1.15 16.97 3.4A43.781 43.781 0 0046 2.34C21.78 2.34 2.14 21.98 2.14 46.2c0 17.68 10.6 33.62 26.89 40.47a43.814 43.814 0 01-16.2-34.05z" fill-opacity=".1"/><path d="M46 .2A45.999 45.999 0 003.5 28.6a45.992 45.992 0 009.98 50.13c17.96 17.96 47.08 17.96 65.05 0 17.96-17.96 17.96-47.09 0-65.05A45.745 45.745 0 0046 .2zm0 87.73c-23 0-41.72-18.72-41.72-41.73C4.28 23.2 23 4.48 46 4.48S87.73 23.2 87.73 46.2C87.73 69.21 69 87.93 46 87.93z"/><path d="M67.87 32.06L40.25 58.47 25.2 43.4a2.13 2.13 0 00-3.01 0c-.84.83-.84 2.19 0 3.02l16.54 16.54c.4.4.94.63 1.52.62.55.01 1.08-.21 1.47-.6l29.1-27.82c.85-.81.87-2.16.07-3.01-.82-.85-2.16-.89-3.02-.09z"/></g></symbol><symbol fill="none" viewBox="0 0 24 24" id="trash" xmlns="http://www.w3.org/2000/svg"><defs><clipPath id="bja"><rect rx="-.5" width="23" height="23" transform="translate(.5 .5)" fill="#fff" fill-opacity="0"/></clipPath></defs><rect rx="-.5" width="23" height="23" transform="translate(.5 .5)" fill="none"/><g clip-path="url(#bja)" stroke="#4295E4" stroke-width="1.5" stroke-linejoin="round"><path d="M20 6l-1.59 14.21A1.987 1.987 0 0116.43 22H7.56a1.987 1.987 0 01-1.98-1.79L4 6h16zM8.08 2.31C8.4 2.1 8.77 2 9.15 2h5.69c.38-.01.75.1 1.07.31.32.2.58.49.74.83L18 6H6l1.34-2.86c.16-.34.42-.63.74-.83z"/><path d="M2 6h20M10 11v5M14 11v5" stroke-linecap="round"/></g></symbol><symbol fill="none" viewBox="0 0 24.599 19.997" id="twitter" xmlns="http://www.w3.org/2000/svg"><path d="M24.59 2.37c-.9.4-1.87.67-2.89.79A5.026 5.026 0 0023.91.37c-.99.59-2.07 1-3.2 1.22A5.064 5.064 0 0017.85.06c-1.1-.18-2.23.01-3.21.53a5.1 5.1 0 00-2.22 2.37 5.152 5.152 0 00-.31 3.24c-2.01-.1-3.97-.63-5.76-1.53C4.56 3.76 2.98 2.48 1.71.92c-.44.75-.68 1.62-.68 2.54-.01.83.2 1.65.59 2.38.39.73.96 1.36 1.65 1.82-.8-.02-1.59-.24-2.29-.63v.06c0 1.17.41 2.3 1.14 3.2.74.9 1.77 1.52 2.91 1.75-.74.2-1.52.23-2.28.09.33 1 .95 1.88 1.8 2.51.84.63 1.86.97 2.92.99-1.79 1.41-4 2.17-6.27 2.16-.4 0-.81-.02-1.2-.07 2.3 1.49 4.99 2.27 7.73 2.27 9.28 0 14.36-7.69 14.36-14.36 0-.21-.01-.43-.02-.65.99-.71 1.84-1.6 2.52-2.61z" fill="#FFF"/></symbol><symbol fill="none" viewBox="0 0 13.506 7.503" id="up" xmlns="http://www.w3.org/2000/svg"><path d="M.75 6.75l6-6 6 6" stroke="#4295E4" stroke-width="1.5" stroke-linejoin="round" stroke-linecap="round"/></symbol><symbol fill="none" viewBox="0 0 26 15.167" id="vk" xmlns="http://www.w3.org/2000/svg"><path d="M25.4 1.02c.18-.59 0-1.02-.86-1.02h-2.85c-.72 0-1.05.37-1.23.79 0 0-1.45 3.46-3.5 5.71-.66.65-.96.86-1.33.86-.18 0-.45-.21-.45-.8V1.02c0-.71-.2-1.02-.8-1.02H9.91c-.45 0-.73.32-.73.64 0 .67 1.03.83 1.14 2.72v4.11c0 .91-.17 1.07-.53 1.07-.97 0-3.31-3.48-4.7-7.46C4.82.31 4.54 0 3.82 0H.97C.16 0 0 .37 0 .79c0 .73.96 4.4 4.49 9.26 2.35 3.31 5.66 5.11 8.67 5.11 1.81 0 2.03-.4 2.03-1.08v-2.51c0-.8.17-.96.75-.96.42 0 1.14.21 2.83 1.81 1.93 1.89 2.24 2.74 3.33 2.74h2.84c.82 0 1.22-.4.99-1.19-.26-.78-1.18-1.92-2.4-3.27-.66-.77-1.66-1.6-1.96-2.01-.42-.53-.3-.77 0-1.24 0 0 3.47-4.8 3.83-6.43z" fill="#FFF" fill-rule="evenodd"/></symbol><symbol fill="none" viewBox="0 0 8 6" id="white-yes" xmlns="http://www.w3.org/2000/svg"><path d="M2.71 5.87L.1 3.26a.386.386 0 01-.1-.28c0-.12.03-.21.1-.28l.58-.57c.08-.08.17-.12.28-.12.11 0 .2.04.29.12L3 3.89 6.75.12c.08-.08.17-.12.28-.12.11 0 .2.04.28.12l.58.57c.07.07.11.16.11.28 0 .11-.04.21-.11.28L3.28 5.87C3.2 5.95 3.11 6 3 6c-.12 0-.21-.05-.29-.13z" fill="#FFF" opacity=".9"/></symbol><symbol fill="none" viewBox="0 0 82 82" id="why-gold-1" xmlns="http://www.w3.org/2000/svg"><defs><clipPath id="boa"><rect rx="-.5" width="81" height="81" transform="translate(.5 .5)" fill="#fff" fill-opacity="0"/></clipPath></defs><rect rx="-.5" width="81" height="81" transform="translate(.5 .5)" fill="none"/><g clip-path="url(#boa)"><path d="M71.55 34.76c-.19-.37-.57-.6-.99-.6H11.43c-.41 0-.8.23-.99.6l-7.4 14.08a1.119 1.119 0 001 1.64h6.27v24.73c0 .62.51 1.12 1.12 1.12h59.13c.62 0 1.12-.5 1.12-1.12V50.48h6.28a1.118 1.118 0 00.99-1.64l-7.4-14.08zM12.11 36.4h27.03l-6.22 11.84H5.89l6.22-11.84zm.44 14.08H33.6c.41 0 .79-.23.99-.6l5.28-10.06v34.27H12.55V50.48zm56.89 23.61H42.12V39.82l5.28 10.06c.19.37.58.6.99.6h21.05v23.61zM49.07 48.24L42.85 36.4h27.03l6.22 11.84H49.07z" fill="#4295E4"/><path d="M70.56 34.16H11.43c-.41 0-.8.23-.99.6l-7.4 14.08a1.119 1.119 0 001 1.64h6.27v24.73c0 .62.51 1.12 1.12 1.12h59.13c.62 0 1.12-.5 1.12-1.12V50.48h6.28a1.118 1.118 0 00.99-1.64l-7.4-14.08c-.19-.37-.57-.6-.99-.6zM39.14 36.4l-6.22 11.84H5.89l6.22-11.84h27.03zM33.6 50.48c.41 0 .79-.23.99-.6l5.28-10.06v34.27H12.55V50.48H33.6zm8.52 23.61V39.82l5.28 10.06c.19.37.58.6.99.6h21.05v23.61H42.12zm.73-37.69h27.03l6.22 11.84H49.07L42.85 36.4z" stroke="#4295E4" stroke-width=".5"/><path d="M41 30.66c6.9 0 12.5-5.6 12.5-12.5 0-6.91-5.6-12.5-12.5-12.5-6.91 0-12.51 5.59-12.51 12.5.01 6.9 5.6 12.49 12.51 12.5zM41 7.9c5.66 0 10.25 4.59 10.25 10.26 0 5.66-4.59 10.26-10.25 10.26-5.67 0-10.26-4.6-10.26-10.26 0-5.67 4.59-10.25 10.26-10.26z" fill="#4295E4"/><path d="M53.5 18.16c0-6.91-5.6-12.5-12.5-12.5-6.91 0-12.51 5.59-12.51 12.5h0c.01 6.9 5.6 12.49 12.51 12.5 6.9 0 12.5-5.6 12.5-12.5zm-2.25 0c0 5.66-4.59 10.26-10.25 10.26-5.67 0-10.26-4.6-10.26-10.26 0-5.67 4.59-10.25 10.26-10.26 5.66 0 10.25 4.59 10.25 10.26z" stroke="#4295E4" stroke-width=".5"/><path d="M42.13 21.28h-5.04c-.62 0-1.12.5-1.12 1.12 0 .62.5 1.12 1.12 1.12h5.04c2.55-.03 4.6-2.12 4.57-4.68a4.619 4.619 0 00-4.57-4.56h-2.34l.78-.78a1.12 1.12 0 10-1.55-1.62l-.03.03-2.69 2.69c-.44.44-.44 1.15 0 1.59l2.69 2.69c.44.44 1.15.44 1.59 0 .43-.44.43-1.15 0-1.59l-.78-.78h2.33c1.32.02 2.37 1.11 2.35 2.42a2.391 2.391 0 01-2.35 2.34v.01z" fill="#4295E4"/><path d="M37.09 21.28c-.62 0-1.12.5-1.12 1.12 0 .62.5 1.12 1.12 1.12h5.04c2.55-.03 4.6-2.12 4.57-4.68a4.619 4.619 0 00-4.57-4.56h-2.34l.78-.78a1.12 1.12 0 10-1.55-1.62l-.03.03-2.69 2.69c-.44.44-.44 1.15 0 1.59 0 0 0 0 0 0l2.69 2.69c.44.44 1.15.44 1.59 0 .43-.44.43-1.15 0-1.59l-.78-.78h2.33c1.32.02 2.37 1.11 2.35 2.42a2.391 2.391 0 01-2.35 2.34v.01h-5.04z" stroke="#4295E4" stroke-width=".5"/></g></symbol><symbol fill="none" viewBox="0 0 82 82" id="why-gold-2" xmlns="http://www.w3.org/2000/svg"><defs><clipPath id="bpa"><rect rx="-.5" width="81" height="81" transform="translate(.5 .5)" fill="#fff" fill-opacity="0"/></clipPath></defs><rect rx="-.5" width="81" height="81" transform="translate(.5 .5)" fill="none"/><g clip-path="url(#bpa)" fill="#4295E4"><path d="M80.98 43.47c-.84-1.55-.84-3.4 0-4.95a8.404 8.404 0 00-2.1-10.54 5.159 5.159 0 01-1.89-4.58 8.398 8.398 0 00-5.97-8.92c-1.69-.51-3-1.82-3.51-3.51A8.398 8.398 0 0058.59 5c-1.76.19-3.47-.52-4.58-1.89a8.404 8.404 0 00-10.54-2.1c-1.55.84-3.4.84-4.95 0a8.404 8.404 0 00-10.54 2.1A5.159 5.159 0 0123.4 5c-4.02-.42-7.77 2.09-8.93 5.97-.5 1.69-1.81 3-3.5 3.5C7.09 15.63 4.58 19.38 5 23.4c.19 1.76-.52 3.47-1.89 4.58a8.404 8.404 0 00-2.1 10.54c.84 1.55.84 3.4 0 4.95a8.404 8.404 0 002.1 10.54A5.159 5.159 0 015 58.59a8.398 8.398 0 005.97 8.92c1.69.51 3 1.82 3.5 3.51 1.16 3.88 4.91 6.39 8.93 5.97 1.76-.19 3.47.52 4.58 1.89a8.404 8.404 0 0010.54 2.1c1.55-.84 3.4-.84 4.95 0 1.27.68 2.64 1.01 4 1.01 2.47 0 4.89-1.08 6.54-3.11a5.159 5.159 0 014.58-1.89c.29.03.58.04.87.04 3.68 0 6.99-2.42 8.06-6.01.5-1.69 1.81-3 3.5-3.51a8.398 8.398 0 005.97-8.92c-.19-1.76.52-3.47 1.89-4.58a8.404 8.404 0 002.1-10.54zM78.16 45a5.2 5.2 0 01-1.29 6.52 8.36 8.36 0 00-3.07 7.4 5.192 5.192 0 01-3.69 5.52 8.402 8.402 0 00-5.67 5.67 5.192 5.192 0 01-5.52 3.69c-2.84-.29-5.61.85-7.4 3.07A5.2 5.2 0 0145 78.16a8.378 8.378 0 00-8.01 0 5.2 5.2 0 01-6.52-1.29 8.349 8.349 0 00-7.4-3.07 5.192 5.192 0 01-5.52-3.69 8.37 8.37 0 00-5.67-5.66 5.21 5.21 0 01-3.69-5.53c.3-2.84-.85-5.6-3.07-7.4A5.2 5.2 0 013.83 45a8.373 8.373 0 000-8.01 5.2 5.2 0 011.29-6.52 8.349 8.349 0 003.07-7.4 5.192 5.192 0 013.69-5.52 8.402 8.402 0 005.67-5.67c.71-2.4 3.03-3.95 5.52-3.69 2.84.3 5.6-.85 7.4-3.07a5.2 5.2 0 016.52-1.29 8.373 8.373 0 008.01 0 5.2 5.2 0 016.52 1.29 8.349 8.349 0 007.4 3.07 5.192 5.192 0 015.52 3.69 8.402 8.402 0 005.67 5.67c2.4.71 3.95 3.03 3.69 5.52-.3 2.84.85 5.6 3.07 7.4a5.2 5.2 0 011.29 6.52 8.373 8.373 0 000 8.01z"/><path d="M56.31 12.49c-6-3.23-13.03-4.48-19.81-3.53-7.01.97-13.36 4.14-18.38 9.16-4.77 4.77-7.89 10.79-9.02 17.42-1.1 6.48-.23 13.05 2.5 19 .27.58.85.93 1.46.93a1.598 1.598 0 001.45-2.27c-5.08-11.04-2.72-24.22 5.87-32.82 9.03-9.02 23.18-11.11 34.41-5.07a1.6 1.6 0 002.17-.65 1.6 1.6 0 00-.65-2.17zM20.45 61.67l-.07-.06c-.62-.63-1.64-.63-2.26 0-.63.62-.63 1.64 0 2.26l.07.07c.31.31.72.47 1.13.47.41 0 .82-.16 1.13-.47a1.6 1.6 0 000-2.27zM69.39 25.47a1.61 1.61 0 00-2.18-.64c-.77.43-1.06 1.4-.63 2.18 6.17 11.27 4.12 25.5-4.97 34.6-8.57 8.56-21.27 10.95-32.36 6.07-.81-.35-1.75.01-2.11.82-.36.81.01 1.76.82 2.11 4.13 1.82 8.54 2.74 13 2.74 1.92 0 3.85-.17 5.76-.51a32.184 32.184 0 0017.15-8.97c5.05-5.04 8.22-11.44 9.18-18.49.93-6.83-.37-13.9-3.66-19.91zM63.91 18.16l-.04-.04c-.62-.63-1.64-.63-2.26 0-.63.62-.63 1.64 0 2.26l.04.05c.31.31.72.47 1.13.47.41 0 .82-.16 1.13-.47a1.6 1.6 0 000-2.27z"/><path d="M61.34 42.6c0-1.82-1.09-3.39-2.65-4.09.21-.52.33-1.09.33-1.68 0-2.47-2.01-4.48-4.48-4.48h-6.97l.46-1.36c.72-2.15.55-4.43-.49-6.45a8.206 8.206 0 00-4.96-4.14c-.81-.24-1.68.19-1.97.99l-2.45 6.78a7.607 7.607 0 01-3.54 4.11l-1.94 1.06a3.62 3.62 0 00-2.49-.99H23.3c-1.99 0-3.61 1.61-3.61 3.6v19.06c0 1.99 1.62 3.6 3.61 3.6h6.89c1.11 0 2.09-.5 2.75-1.28l.74.29c1.68.66 3.44.99 5.25.99h13.6c2.47 0 4.48-2.01 4.48-4.48 0-.61-.12-1.18-.34-1.71a4.485 4.485 0 002.58-4.06c0-.63-.13-1.23-.36-1.77a4.484 4.484 0 002.45-3.99zM30.59 55.01c0 .22-.18.4-.4.4H23.3c-.22 0-.4-.18-.4-.4V35.95c0-.22.18-.4.4-.4h6.89c.17 0 .31.1.37.24l.03.12V55.01zm26.26-11.13h-7.21c-.88 0-1.6.72-1.6 1.6 0 .88.72 1.6 1.6 1.6h5.13c.7 0 1.28.58 1.28 1.28 0 .71-.58 1.28-1.28 1.28h-5.13a1.605 1.605 0 000 3.21h2.89c.7 0 1.28.57 1.28 1.28 0 .7-.58 1.28-1.28 1.28h-13.6c-1.41 0-2.78-.26-4.08-.77l-1.05-.41V36.38l2.36-1.28c2.33-1.27 4.11-3.35 5.01-5.84l1.86-5.14c.7.48 1.27 1.12 1.67 1.89.63 1.24.74 2.64.29 3.96l-1.16 3.47c-.17.49-.09 1.02.21 1.44.3.42.79.67 1.3.67h9.2c.7 0 1.28.57 1.28 1.28 0 .71-.58 1.28-1.28 1.28h-4.9a1.605 1.605 0 000 3.21h7.21c.71 0 1.28.57 1.28 1.28 0 .7-.57 1.28-1.28 1.28z"/></g></symbol><symbol fill="none" viewBox="0 0 82 82" id="why-gold-3" xmlns="http://www.w3.org/2000/svg"><defs><clipPath id="bqa"><rect rx="-.5" width="81" height="81" transform="translate(.5 .5)" fill="#fff" fill-opacity="0"/></clipPath></defs><rect rx="-.5" width="81" height="81" transform="translate(.5 .5)" fill="none"/><g clip-path="url(#bqa)"><path d="M71.55 34.76c-.19-.37-.57-.6-.99-.6H11.43c-.41 0-.8.23-.99.6l-7.4 14.08a1.119 1.119 0 001 1.64h6.27v24.73c0 .62.51 1.12 1.12 1.12h59.13c.62 0 1.12-.5 1.12-1.12V50.48h6.28a1.118 1.118 0 00.99-1.64l-7.4-14.08zM12.11 36.4h27.03l-6.22 11.84H5.89l6.22-11.84zm.44 14.08H33.6c.41 0 .79-.23.99-.6l5.28-10.06v34.27H12.55V50.48zm56.89 23.61H42.12V39.82l5.28 10.06c.19.37.58.6.99.6h21.05v23.61zM49.07 48.24L42.85 36.4h27.03l6.22 11.84H49.07z" fill="#4295E4"/><path d="M70.56 34.16H11.43c-.41 0-.8.23-.99.6l-7.4 14.08a1.119 1.119 0 001 1.64h6.27v24.73c0 .62.51 1.12 1.12 1.12h59.13c.62 0 1.12-.5 1.12-1.12V50.48h6.28a1.118 1.118 0 00.99-1.64l-7.4-14.08c-.19-.37-.57-.6-.99-.6zM39.14 36.4l-6.22 11.84H5.89l6.22-11.84h27.03zM33.6 50.48c.41 0 .79-.23.99-.6l5.28-10.06v34.27H12.55V50.48H33.6zm8.52 23.61V39.82l5.28 10.06c.19.37.58.6.99.6h21.05v23.61H42.12zm.73-37.69h27.03l6.22 11.84H49.07L42.85 36.4z" stroke="#4295E4" stroke-width=".5"/><path d="M41 30.66c6.9 0 12.5-5.6 12.5-12.5 0-6.91-5.6-12.5-12.5-12.5-6.91 0-12.51 5.59-12.51 12.5.01 6.9 5.6 12.49 12.51 12.5zM41 7.9c5.66 0 10.25 4.59 10.25 10.26 0 5.66-4.59 10.26-10.25 10.26-5.67 0-10.26-4.6-10.26-10.26 0-5.67 4.59-10.25 10.26-10.26z" fill="#4295E4"/><path d="M53.5 18.16c0-6.91-5.6-12.5-12.5-12.5-6.91 0-12.51 5.59-12.51 12.5h0c.01 6.9 5.6 12.49 12.51 12.5 6.9 0 12.5-5.6 12.5-12.5zm-2.25 0c0 5.66-4.59 10.26-10.25 10.26-5.67 0-10.26-4.6-10.26-10.26 0-5.67 4.59-10.25 10.26-10.26 5.66 0 10.25 4.59 10.25 10.26z" stroke="#4295E4" stroke-width=".5"/><path d="M42.13 21.28h-5.04c-.62 0-1.12.5-1.12 1.12 0 .62.5 1.12 1.12 1.12h5.04c2.55-.03 4.6-2.12 4.57-4.68a4.619 4.619 0 00-4.57-4.56h-2.34l.78-.78a1.12 1.12 0 10-1.55-1.62l-.03.03-2.69 2.69c-.44.44-.44 1.15 0 1.59l2.69 2.69c.44.44 1.15.44 1.59 0 .43-.44.43-1.15 0-1.59l-.78-.78h2.33c1.32.02 2.37 1.11 2.35 2.42a2.391 2.391 0 01-2.35 2.34v.01z" fill="#4295E4"/><path d="M37.09 21.28c-.62 0-1.12.5-1.12 1.12 0 .62.5 1.12 1.12 1.12h5.04c2.55-.03 4.6-2.12 4.57-4.68a4.619 4.619 0 00-4.57-4.56h-2.34l.78-.78a1.12 1.12 0 10-1.55-1.62l-.03.03-2.69 2.69c-.44.44-.44 1.15 0 1.59 0 0 0 0 0 0l2.69 2.69c.44.44 1.15.44 1.59 0 .43-.44.43-1.15 0-1.59l-.78-.78h2.33c1.32.02 2.37 1.11 2.35 2.42a2.391 2.391 0 01-2.35 2.34v.01h-5.04z" stroke="#4295E4" stroke-width=".5"/></g></symbol></svg>